<?xml version="1.0" encoding="UTF-8"?>
<svg xmlns="http://www.w3.org/2000/svg" xmlns:xlink="http://www.w3.org/1999/xlink" width="100px" height="100px" viewBox="0 0 100 100" version="1.1">
<g id="surface1">
<path style=" stroke:none;fill-rule:evenodd;fill:rgb(90.588236%,85.882354%,89.803922%);fill-opacity:1;" d="M 50.542969 98.988281 C 23.574219 98.988281 1.734375 77.148438 1.734375 50.179688 C 1.734375 23.214844 23.574219 1.371094 50.542969 1.371094 C 77.507812 1.371094 99.351562 23.214844 99.351562 50.179688 C 99.351562 77.148438 77.507812 98.988281 50.542969 98.988281 Z M 50.542969 98.988281 "/>
<path style=" stroke:none;fill-rule:nonzero;fill:rgb(0%,0%,0%);fill-opacity:1;" d="M 78.085938 55.667969 L 74.441406 56.75 C 74.40625 56.5 74.585938 56.425781 74.765625 56.316406 C 75.453125 55.921875 76.785156 55.8125 77.507812 55.453125 C 77.726562 55.34375 77.871094 55.269531 77.832031 55.019531 L 74.332031 56.066406 C 74.261719 55.8125 74.476562 55.777344 74.65625 55.667969 C 75.453125 55.269531 76.605469 55.199219 77.4375 54.800781 C 77.617188 54.691406 77.761719 54.800781 77.691406 54.476562 L 74.261719 55.523438 C 74.117188 55.414062 73.972656 55.34375 74.1875 55.199219 C 74.621094 54.910156 76.28125 54.546875 76.929688 54.296875 C 77.113281 54.222656 77.507812 54.117188 77.546875 53.933594 L 73.972656 54.875 C 73.753906 54.730469 74.007812 54.585938 74.152344 54.476562 C 74.765625 54.152344 75.921875 53.972656 76.605469 53.71875 C 76.824219 53.644531 77.363281 53.574219 77.292969 53.25 C 76.246094 53.285156 75.125 54.042969 74.117188 54.1875 C 73.828125 54.222656 73.71875 54.261719 73.789062 53.933594 C 74.765625 53.539062 75.957031 53.355469 76.894531 52.925781 C 77.074219 52.816406 77.21875 52.925781 77.148438 52.5625 L 73.5 53.5 C 73.429688 53.140625 73.609375 53.285156 73.828125 53.214844 C 74.65625 52.886719 75.632812 52.707031 76.460938 52.347656 C 76.605469 52.273438 76.859375 52.273438 76.894531 52.023438 L 73.429688 52.960938 C 73.320312 52.851562 73.140625 52.78125 73.394531 52.636719 C 73.863281 52.308594 75.59375 51.984375 76.316406 51.660156 C 76.460938 51.589844 76.714844 51.589844 76.75 51.371094 L 73.105469 52.308594 C 73.070312 52.023438 73.214844 51.984375 73.429688 51.878906 C 74.296875 51.515625 75.558594 51.335938 76.460938 50.9375 C 76.5 50.6875 76.210938 50.867188 76.066406 50.867188 C 75.59375 50.976562 73.105469 51.878906 72.960938 51.769531 C 72.925781 51.480469 73.105469 51.445312 73.285156 51.335938 C 73.863281 51.046875 74.875 50.902344 75.558594 50.648438 C 75.8125 50.578125 76.425781 50.46875 76.355469 50.144531 C 75.089844 50.253906 73.933594 51.117188 72.707031 51.011719 C 73.609375 50.359375 74.910156 50.289062 75.921875 49.820312 C 76.136719 49.710938 76.28125 49.820312 76.210938 49.457031 L 72.5625 50.398438 C 73.464844 49.601562 75.054688 49.785156 75.921875 48.917969 L 72.273438 49.890625 C 72.238281 49.675781 72.308594 49.640625 72.417969 49.53125 C 73.070312 49.0625 75.199219 49.023438 75.8125 48.265625 L 72.167969 49.207031 C 72.09375 48.84375 72.238281 48.953125 72.417969 48.882812 C 73.285156 48.484375 74.40625 48.304688 75.269531 47.90625 C 75.453125 47.832031 75.59375 47.941406 75.523438 47.582031 L 72.09375 48.664062 C 71.949219 48.519531 71.804688 48.484375 72.023438 48.339844 C 72.382812 48.015625 74.332031 47.617188 74.945312 47.363281 C 75.125 47.292969 75.34375 47.292969 75.378906 47.039062 L 71.949219 48.085938 L 71.769531 47.726562 C 72.707031 47.4375 73.753906 47.183594 74.691406 46.824219 C 74.910156 46.714844 75.054688 46.894531 74.980469 46.5 L 71.695312 47.4375 L 71.625 47.039062 C 72.453125 46.859375 73.355469 46.570312 74.152344 46.28125 C 74.367188 46.171875 74.511719 46.355469 74.441406 45.957031 L 71.335938 46.785156 C 71.300781 46.5 71.480469 46.460938 71.695312 46.355469 C 72.09375 46.136719 74.042969 45.632812 74.40625 45.777344 C 75.488281 46.210938 75.8125 47.652344 76.136719 48.664062 C 76.75 50.46875 77.292969 53.464844 78.085938 55.054688 C 78.121094 55.199219 78.160156 55.34375 78.304688 55.378906 L 79.3125 54.65625 L 76.679688 46.605469 C 75.921875 45.308594 74.078125 45.125 72.707031 45.414062 C 72.742188 45.777344 73.5 45.269531 73.355469 45.8125 L 71.226562 45.957031 C 72.382812 44.730469 74.980469 44.765625 76.316406 45.777344 C 77.183594 46.390625 77.761719 48.953125 78.121094 50.035156 C 78.664062 51.625 79.132812 53.285156 79.566406 54.910156 C 79.023438 55.164062 78.449219 55.992188 78.050781 56.246094 C 77.691406 56.460938 75.558594 57.113281 75.089844 57.183594 C 74.980469 57.21875 74.585938 57.328125 74.585938 57.074219 C 74.585938 56.714844 77.796875 56.28125 78.085938 55.667969 Z M 78.085938 55.667969 "/>
<path style=" stroke:none;fill-rule:nonzero;fill:rgb(0%,0%,0%);fill-opacity:1;" d="M 73.394531 57.691406 L 78.015625 58.519531 L 78.160156 58.230469 C 77.941406 54.945312 82.382812 54.078125 84.546875 56.027344 C 86.679688 57.871094 85.269531 60.613281 82.742188 60.902344 C 81.15625 61.117188 80.578125 60.578125 79.207031 60.289062 C 77.507812 59.964844 75.738281 59.890625 74.042969 59.457031 C 74.007812 59.675781 74.078125 59.890625 74.117188 60.144531 C 74.585938 62.707031 76.460938 66.027344 75.269531 68.59375 C 74.441406 70.398438 72.128906 71.15625 70.6875 69.496094 C 68.773438 67.257812 69.855469 62.886719 73.105469 62.960938 L 72.09375 59.207031 C 68.773438 58.195312 65.019531 57.796875 62.203125 55.667969 L 71.480469 57.292969 L 68.988281 48.015625 C 71.261719 50.757812 72.203125 54.367188 73.394531 57.691406 Z M 78.375 58.664062 C 78.195312 58.84375 73.464844 57.976562 73.25 57.761719 C 72.058594 54.945312 71.335938 51.914062 69.675781 49.351562 C 69.566406 50.433594 71.984375 57.003906 71.695312 57.4375 C 71.445312 57.796875 64.511719 56.210938 63.539062 56.210938 C 63.644531 56.460938 64.117188 56.605469 64.332031 56.679688 C 65.019531 56.96875 65.738281 57.21875 66.425781 57.4375 C 68.085938 57.976562 70.324219 58.230469 71.804688 58.808594 C 72.023438 58.917969 72.128906 58.917969 72.273438 59.132812 C 72.453125 59.386719 73.429688 62.816406 73.355469 62.996094 C 73.285156 63.285156 72.308594 63.25 71.878906 63.429688 C 70.070312 64.152344 69.496094 67.257812 70.542969 68.84375 C 71.226562 69.855469 72.203125 70.542969 73.464844 70 C 75.199219 69.242188 75.667969 67.21875 75.34375 65.523438 C 75.164062 64.730469 73.539062 59.566406 73.789062 59.3125 C 75.738281 59.53125 77.796875 59.785156 79.746094 60.179688 C 80.867188 60.398438 81.226562 60.792969 82.597656 60.6875 C 84.546875 60.503906 86.171875 58.59375 84.910156 56.785156 C 83.070312 54.1875 77.90625 55.019531 78.375 58.664062 Z M 78.375 58.664062 "/>
<path style=" stroke:none;fill-rule:nonzero;fill:rgb(0%,0%,0%);fill-opacity:1;" d="M 81.695312 61.515625 C 82.023438 63.320312 83.394531 64.945312 81.949219 66.605469 C 81.914062 66.679688 81.804688 67.113281 81.589844 66.859375 C 81.515625 66.785156 82.382812 65.488281 82.382812 65.019531 C 82.417969 64.621094 81.660156 61.984375 81.40625 61.734375 C 81.15625 61.515625 80.433594 61.480469 80.109375 61.480469 C 79.929688 61.625 81.40625 65.089844 81.335938 65.847656 C 81.226562 66.859375 80.253906 66.96875 79.964844 67.796875 L 81.046875 67.472656 C 80.289062 68.160156 79.242188 68.519531 78.230469 68.628906 C 78.160156 68.265625 78.339844 68.375 78.484375 68.265625 C 78.953125 68.015625 79.53125 67.796875 79.855469 67.402344 L 78.015625 67.941406 L 77.976562 67.546875 C 78.085938 67.402344 80.578125 67.003906 80.792969 66.460938 C 79.855469 66.535156 78.917969 67.074219 78.015625 67.257812 C 77.761719 67.292969 77.761719 67.148438 77.90625 67.003906 C 78.160156 66.714844 80.253906 66.246094 80.792969 65.992188 C 81.011719 65.882812 81.117188 65.992188 81.046875 65.632812 C 80.867188 65.488281 78.085938 66.785156 77.546875 66.535156 C 78.304688 65.882812 79.457031 65.777344 80.398438 65.453125 C 80.542969 65.378906 80.9375 65.308594 80.9375 65.089844 C 79.890625 65.054688 78.738281 65.8125 77.761719 65.882812 C 77.472656 65.921875 77.363281 65.992188 77.4375 65.632812 C 78.304688 65.34375 79.640625 65.125 80.46875 64.691406 C 80.648438 64.621094 80.832031 64.585938 80.792969 64.296875 C 79.820312 64.546875 78.84375 64.945312 77.871094 65.199219 C 77.582031 65.269531 77.328125 65.488281 77.148438 65.164062 C 78.085938 64.621094 79.242188 64.476562 80.214844 64.078125 C 80.398438 64.007812 80.613281 64.007812 80.648438 63.753906 L 77.003906 64.691406 C 76.929688 64.367188 77.328125 64.332031 77.546875 64.222656 C 78.449219 63.898438 79.496094 63.683594 80.398438 63.355469 L 80.214844 63.105469 L 76.894531 64.152344 C 76.824219 63.898438 77.003906 63.828125 77.183594 63.71875 C 78.050781 63.25 79.53125 63.320312 80.253906 62.5625 L 76.605469 63.5 C 76.570312 63.214844 76.75 63.175781 76.96875 63.105469 C 77.871094 62.707031 79.023438 62.492188 80 62.128906 C 80 61.914062 80.070312 61.839844 79.785156 61.878906 C 78.738281 61.984375 77.507812 62.925781 76.355469 62.816406 C 77.183594 62.128906 78.410156 62.023438 79.421875 61.625 C 79.640625 61.515625 79.929688 61.515625 79.855469 61.191406 C 78.773438 61.300781 77.402344 62.167969 76.425781 62.273438 C 76.066406 62.308594 76.246094 62.023438 76.210938 61.878906 C 77.21875 61.878906 78.59375 60.9375 79.53125 60.9375 C 80.179688 60.902344 81.011719 61.445312 81.695312 61.515625 Z M 81.695312 61.515625 "/>
<path style=" stroke:none;fill-rule:nonzero;fill:rgb(0%,0%,0%);fill-opacity:1;" d="M 78.773438 60.648438 C 78.738281 60.902344 78.519531 60.902344 78.339844 60.976562 C 77.871094 61.15625 76.929688 61.40625 76.460938 61.515625 C 76.210938 61.550781 76.136719 61.695312 75.957031 61.40625 C 75.957031 61.261719 78.410156 60.542969 78.773438 60.648438 Z M 78.773438 60.648438 "/>
<path style=" stroke:none;fill-rule:nonzero;fill:rgb(0%,0%,0%);fill-opacity:1;" d="M 77.832031 56.75 C 77.90625 57.113281 77.761719 57.003906 77.546875 57.074219 C 76.894531 57.402344 75.992188 57.582031 75.269531 57.582031 C 75.269531 57.582031 77.832031 56.75 77.832031 56.75 Z M 77.832031 56.75 "/>
<path style=" stroke:none;fill-rule:nonzero;fill:rgb(0%,0%,0%);fill-opacity:1;" d="M 70.433594 36.5 C 70.214844 36.28125 68.988281 34.691406 68.953125 34.40625 C 68.808594 33.574219 69.640625 33.175781 70.359375 33.574219 C 70.613281 33.71875 71.804688 35.34375 71.914062 35.667969 C 72.167969 36.605469 71.117188 37.039062 70.433594 36.5 Z M 70.109375 34.007812 C 69.964844 33.898438 69.675781 34.007812 69.457031 33.972656 C 69.386719 34.40625 69.675781 34.765625 69.964844 35.054688 L 70.542969 34.765625 C 70.613281 34.691406 70.144531 34.007812 70.109375 34.007812 Z M 70.433594 35.34375 C 70.613281 36.785156 72.203125 36.246094 70.9375 35.125 Z M 70.433594 35.34375 "/>
<path style=" stroke:none;fill-rule:nonzero;fill:rgb(0%,0%,0%);fill-opacity:1;" d="M 71.804688 68.84375 C 70.648438 67.871094 70.792969 64.835938 72.347656 64.261719 C 74.511719 63.464844 74.980469 67.328125 73.789062 68.699219 C 73.285156 69.242188 72.382812 69.351562 71.804688 68.84375 Z M 73.609375 64.621094 C 72.816406 63.972656 71.734375 64.875 71.445312 65.667969 C 70.503906 68.230469 73.105469 70.324219 74.007812 67.691406 C 74.261719 67.003906 74.1875 65.089844 73.609375 64.621094 Z M 73.609375 64.621094 "/>
<path style=" stroke:none;fill-rule:nonzero;fill:rgb(0%,0%,0%);fill-opacity:1;" d="M 80.832031 59.421875 C 80.648438 59.242188 80.070312 57.148438 80.109375 56.824219 C 80.214844 56.28125 81.660156 56.210938 82.128906 56.28125 C 83.25 56.425781 84.621094 57.363281 84.222656 58.628906 C 83.898438 59.675781 81.480469 60.070312 80.832031 59.421875 Z M 81.15625 56.535156 C 80.9375 56.535156 80.324219 56.75 80.253906 56.96875 C 80.832031 58.449219 80.503906 59.785156 82.5625 59.421875 C 85.378906 58.953125 83.753906 56.101562 81.15625 56.535156 Z M 81.15625 56.535156 "/>
<path style=" stroke:none;fill-rule:nonzero;fill:rgb(0%,0%,0%);fill-opacity:1;" d="M 73.355469 58.882812 C 73.25 59.0625 72.597656 58.988281 72.417969 58.84375 C 71.914062 58.410156 72.671875 57.507812 73.175781 57.941406 C 73.394531 58.121094 73.464844 58.699219 73.355469 58.882812 Z M 73.355469 58.882812 "/>
<path style=" stroke:none;fill-rule:nonzero;fill:rgb(11.372549%,11.372549%,10.588235%);fill-opacity:1;" d="M 39.386719 58.628906 C 39.132812 58.554688 39.785156 59.710938 39.386719 59.601562 C 39.023438 59.53125 38.59375 60.070312 38.59375 60.070312 L 38.59375 58.484375 L 39.0625 57.761719 C 39.0625 57.761719 39.386719 58.628906 39.386719 58.628906 Z M 39.386719 58.628906 "/>
<path style=" stroke:none;fill-rule:nonzero;fill:rgb(0%,0%,0%);fill-opacity:1;" d="M 33.070312 59.167969 C 31.660156 58.628906 30.433594 57.976562 29.421875 56.824219 C 28.664062 55.921875 28.410156 54.980469 27.292969 54.40625 C 25.234375 53.355469 22.851562 54.476562 21.011719 52.707031 L 19.601562 50.6875 C 19.351562 53.320312 22.203125 55.269531 22.417969 57.617188 C 22.5625 59.277344 22.023438 60.433594 21.914062 61.984375 L 23.898438 62.203125 C 24.296875 62.453125 24.078125 63.972656 24.367188 64.441406 C 24.546875 64.730469 25.34375 64.800781 25.453125 64.980469 C 25.59375 65.164062 25.453125 65.558594 25.558594 65.8125 C 25.703125 66.425781 27.074219 66.316406 27.402344 66.785156 C 27.832031 67.363281 27.328125 68.554688 28.59375 68.664062 C 30.324219 68.882812 32.742188 65.019531 34.945312 65.378906 C 35.269531 63.828125 35.632812 61.949219 34.800781 60.542969 L 35.738281 60.253906 C 37.003906 63.898438 34.511719 66.535156 37.4375 69.820312 C 41.261719 74.117188 45.957031 70 49.496094 73.683594 C 49.964844 74.1875 51.839844 76.785156 50.179688 76.5 C 49.640625 74.980469 48.519531 73.644531 47.003906 73.105469 C 45.019531 72.382812 42.996094 73.105469 40.976562 72.78125 C 37.726562 72.238281 35.453125 69.457031 34.875 66.316406 C 32.308594 66.210938 29.964844 71.371094 27.328125 69.167969 C 26.679688 68.59375 26.929688 67.976562 26.679688 67.546875 C 26.535156 67.328125 25.378906 67.074219 25.054688 66.75 C 24.65625 66.355469 24.730469 65.777344 24.546875 65.558594 C 24.441406 65.414062 23.972656 65.378906 23.71875 64.980469 C 23.320312 64.441406 23.320312 63.71875 23.355469 63.105469 C 22.636719 63.105469 21.550781 63.105469 21.15625 62.382812 C 20.722656 61.515625 21.550781 59.964844 21.625 58.84375 C 21.734375 56.210938 20.289062 55.558594 19.386719 53.394531 C 19.023438 52.527344 18.808594 51.625 18.699219 50.6875 C 17.761719 51.949219 16.824219 53.574219 16.5 55.125 C 15.921875 58.085938 17.941406 59.785156 18.230469 62.527344 C 18.375 64.1875 17.691406 65.488281 17.832031 66.929688 C 18.160156 69.746094 21.117188 70.359375 20.648438 73.789062 C 20.542969 74.476562 20.070312 75.125 20 75.847656 C 19.855469 77.113281 20.503906 78.339844 20.253906 79.566406 L 19.566406 79.746094 L 19.023438 76.101562 C 19.132812 74.875 19.964844 73.898438 19.855469 72.636719 C 19.710938 71.082031 17.976562 69.890625 17.363281 68.484375 C 16.355469 66.136719 17.472656 64.875 17.292969 62.636719 C 16.96875 59.167969 14.585938 58.375 15.847656 54.042969 C 16.5 51.769531 18.160156 50.542969 18.882812 48.84375 C 19.167969 48.160156 19.277344 47.148438 19.53125 46.390625 C 24.117188 32.78125 43.933594 35.34375 48.195312 47.761719 C 48.410156 48.375 49.207031 51.046875 49.023438 51.480469 C 48.808594 51.949219 48.375 51.878906 48.195312 51.40625 C 47.976562 50.832031 47.90625 49.746094 47.726562 49.0625 C 43.898438 35.414062 22.382812 33.644531 19.785156 48.953125 C 20.359375 50 20.902344 51.480469 21.878906 52.273438 C 23.320312 53.429688 25.777344 52.707031 27.582031 53.574219 C 29.207031 54.367188 29.601562 56.027344 30.902344 57.113281 C 31.550781 57.652344 32.347656 57.90625 33.070312 58.304688 L 33.070312 59.207031 Z M 33.070312 59.167969 "/>
<path style=" stroke:none;fill-rule:nonzero;fill:rgb(0%,0%,0%);fill-opacity:1;" d="M 71.515625 33.429688 C 75.523438 32.382812 79.53125 35.667969 79.351562 39.785156 C 79.277344 41.914062 77.472656 43.5 75.378906 42.816406 C 75.164062 42.742188 74.078125 42.238281 73.933594 42.128906 C 73.753906 42.023438 73.71875 41.695312 73.574219 41.660156 C 73.464844 41.660156 72.996094 41.949219 72.636719 41.914062 C 72.167969 41.914062 71.984375 41.660156 71.660156 41.550781 C 71.480469 41.480469 71.261719 41.660156 71.046875 41.515625 C 70.503906 41.191406 69.097656 38.988281 68.519531 38.375 C 68.449219 38.265625 68.195312 37.976562 68.121094 38.015625 C 68.085938 38.410156 67.761719 38.699219 67.617188 39.0625 C 66.929688 40.722656 67.292969 42.527344 67.039062 44.296875 C 66.859375 45.453125 66.027344 47.941406 65.164062 48.738281 C 64.980469 48.917969 64.875 48.988281 64.621094 48.953125 C 64.441406 48.773438 65.523438 47.257812 65.667969 46.96875 C 65.921875 46.5 66.171875 45.8125 66.28125 45.308594 C 67.003906 42.636719 66.066406 39.929688 67.832031 37.546875 C 67.726562 36.929688 67.039062 38.304688 66.96875 38.410156 C 65.847656 40.867188 66.644531 43.355469 65.8125 45.777344 C 65.703125 46.101562 64.476562 48.917969 63.933594 48.410156 L 65.378906 45.453125 C 66.28125 42.597656 65.164062 39.457031 67.292969 36.96875 L 66.96875 36.535156 C 66.101562 37.871094 64.296875 36.066406 64.476562 34.980469 C 64.546875 34.585938 65.125 34.441406 65.164062 34.042969 C 65.199219 33.683594 64.835938 33.175781 64.875 32.742188 C 64.691406 32.707031 64.65625 32.816406 64.546875 32.886719 C 61.660156 34.476562 58.773438 37.328125 55.882812 38.917969 C 54.910156 39.457031 54.441406 39.242188 53.574219 38.738281 C 51.949219 37.796875 49.496094 34.765625 49.785156 32.816406 C 49.855469 32.347656 50.6875 31.625 51.046875 31.261719 C 54.152344 28.304688 57.292969 25.34375 60.433594 22.453125 C 60.902344 22.023438 62.273438 20.648438 62.816406 20.613281 C 64.222656 20.578125 66.570312 21.625 67.582031 22.5625 C 68.84375 23.753906 69.710938 25.847656 69.746094 27.582031 C 69.785156 28.664062 69.675781 29.53125 68.699219 30.144531 C 68.84375 31.082031 69.566406 31.117188 70.144531 31.625 C 70.613281 32.058594 71.15625 32.886719 71.515625 33.429688 Z M 69.023438 29.207031 C 69.242188 28.917969 69.242188 27.582031 69.207031 27.148438 C 69.023438 24.546875 67.074219 22.167969 64.546875 21.445312 C 63.898438 21.261719 62.273438 20.757812 62.203125 21.695312 C 65.921875 22.417969 68.449219 25.777344 68.519531 29.53125 C 68.554688 29.53125 68.988281 29.242188 69.023438 29.207031 Z M 55.992188 38.160156 L 67.90625 29.929688 C 68.230469 27.871094 67.113281 25.378906 65.632812 24.007812 C 64.945312 23.320312 62.417969 21.769531 61.515625 22.167969 L 51.011719 32.023438 C 53.5 33.070312 55.523438 35.453125 55.992188 38.160156 Z M 66.785156 31.300781 L 67.402344 33.574219 L 72.636719 40.035156 L 72.960938 40.109375 L 74.730469 38.085938 C 73.070312 36.355469 71.695312 34.078125 70.070312 32.347656 C 69.351562 31.589844 68.519531 31.371094 68.195312 30.324219 C 68.195312 30.324219 66.785156 31.300781 66.785156 31.300781 Z M 65.738281 33.933594 C 65.8125 34.007812 66.171875 34.042969 66.390625 34.152344 C 67.328125 34.765625 67.363281 35.414062 67.582031 36.460938 L 71.15625 40.867188 C 71.515625 41.15625 72.023438 40.722656 72.382812 40.578125 L 66.859375 33.683594 L 66.355469 31.695312 L 65.308594 32.453125 C 65.269531 32.597656 65.632812 33.863281 65.738281 33.933594 Z M 50.867188 32.492188 C 50.289062 32.492188 50.179688 32.925781 50.253906 33.429688 C 50.433594 34.980469 52.597656 37.652344 53.933594 38.410156 C 54.367188 38.664062 54.910156 38.953125 55.414062 38.664062 L 55.453125 38.160156 C 54.691406 38.449219 53.753906 37.691406 53.214844 37.21875 C 52.023438 36.171875 50.503906 34.117188 50.867188 32.492188 Z M 72.023438 34.117188 L 74.117188 34.117188 C 74.765625 34.117188 76.210938 35.019531 76.679688 35.453125 C 78.195312 36.859375 79.675781 40.648438 77.292969 41.878906 C 76.28125 42.382812 76.101562 42.128906 75.164062 41.804688 C 75.089844 41.804688 74.691406 41.550781 74.730469 41.878906 C 74.730469 42.023438 75.269531 42.273438 75.453125 42.347656 C 77.617188 43.03125 79.0625 41.226562 78.882812 39.167969 C 78.664062 36.316406 76.171875 33.863281 73.320312 33.71875 C 72.925781 33.683594 71.984375 33.539062 72.023438 34.117188 Z M 66.894531 35.992188 C 66.96875 35.308594 66.28125 34.441406 65.558594 34.511719 Z M 72.5625 34.511719 C 72.382812 34.65625 75.164062 37.652344 75.234375 37.976562 C 75.234375 38.050781 75.414062 39.496094 75.414062 39.566406 C 75.378906 39.964844 74.980469 40.398438 75.019531 40.613281 C 75.125 41.226562 75.777344 41.695312 76.390625 41.660156 C 78.265625 41.589844 78.195312 39.3125 77.761719 38.015625 C 76.96875 35.777344 74.910156 34.441406 72.5625 34.511719 Z M 65.019531 34.910156 C 64.800781 35.453125 65.703125 36.605469 66.171875 36.535156 C 66.570312 36.460938 66.027344 35.667969 65.921875 35.558594 C 65.703125 35.234375 65.414062 34.910156 65.019531 34.910156 Z M 72.308594 41.371094 C 72.742188 41.625 73.355469 41.117188 73.574219 41.117188 C 73.863281 41.117188 74.332031 42.058594 74.691406 41.082031 C 74.007812 40.359375 74.691406 40.398438 74.835938 39.820312 C 74.910156 39.496094 74.945312 38.519531 74.476562 39.0625 C 74.152344 39.386719 73.863281 39.785156 73.574219 40.179688 L 72.273438 41.371094 Z M 72.308594 41.371094 "/>
<path style=" stroke:none;fill-rule:nonzero;fill:rgb(0%,0%,0%);fill-opacity:1;" d="M 41.695312 53.394531 C 41.445312 52.996094 40.433594 52.636719 40.867188 52.09375 L 41.226562 51.878906 C 41.660156 52.058594 41.804688 52.453125 42.238281 52.636719 C 42.5625 52.78125 44.945312 53.214844 45.054688 53.105469 C 45.054688 52.707031 45.089844 52.382812 45.558594 52.308594 C 46.101562 52.203125 48.410156 52.238281 49.023438 52.347656 C 51.335938 52.707031 52.636719 55.523438 54.332031 56.859375 L 62.128906 57.183594 L 62.851562 57.507812 C 62.960938 57.832031 62.5625 58.121094 62.273438 58.121094 L 53.789062 57.652344 C 52.527344 56.679688 51.589844 54.945312 50.324219 54.007812 C 50.109375 53.828125 49.097656 53.25 48.917969 53.25 L 46.027344 53.25 L 46.027344 64.1875 L 46.96875 63.972656 L 46.96875 54.730469 L 47.617188 54.65625 L 47.90625 55.234375 L 47.90625 64.1875 C 48.917969 64.261719 50 63.71875 50.722656 63.03125 C 51.046875 62.742188 53.285156 60.214844 53.355469 60 C 53.539062 59.566406 53.25 58.664062 53.789062 58.519531 C 54.332031 58.375 54.441406 59.242188 54.367188 59.601562 L 62.636719 59.167969 C 62.886719 59.242188 62.886719 59.890625 62.636719 60 L 54.332031 60.433594 C 52.636719 61.804688 51.335938 64.585938 49.023438 64.945312 C 48.410156 65.054688 46.136719 65.089844 45.558594 64.980469 C 45.125 64.910156 45.089844 64.511719 45.054688 64.1875 C 44.332031 64.1875 43.539062 64.546875 42.996094 64.980469 C 42.78125 65.164062 42.597656 65.703125 42.203125 65.632812 C 41.480469 65.523438 42.023438 64.691406 42.382812 64.367188 C 42.597656 64.1875 42.925781 64.152344 43.03125 63.898438 L 38.917969 63.898438 C 38.882812 63.898438 38.628906 63.789062 38.59375 63.683594 L 38.59375 62.238281 L 39.132812 61.695312 L 38.59375 61.261719 C 38.628906 60.902344 38.519531 60.398438 38.59375 60.109375 C 38.628906 59.964844 38.882812 59.964844 38.917969 59.855469 C 39.0625 59.566406 38.988281 59.0625 39.386719 58.917969 L 39.386719 60.832031 C 40.214844 61.335938 40.9375 61.226562 41.878906 61.226562 C 42.09375 61.261719 42.09375 61.984375 41.878906 62.023438 C 41.046875 62.023438 39.277344 61.839844 39.386719 62.960938 L 44.980469 62.960938 L 45.199219 62.78125 L 45.199219 54.332031 L 39.386719 54.332031 L 39.421875 55.882812 C 39.601562 55.957031 40.214844 56.644531 40.289062 56.644531 L 43.25 56.644531 C 43.5 56.644531 43.5 57.4375 43.25 57.4375 L 40.398438 57.4375 C 40.324219 57.4375 39.207031 58.304688 39.386719 58.664062 L 39.132812 58.59375 L 39.277344 58.121094 C 39.097656 58.085938 39.023438 58.121094 38.917969 58.230469 C 38.59375 58.554688 38.882812 58.917969 38.59375 59.0625 C 38.554688 58.230469 38.449219 57.4375 39.386719 57.183594 C 39.457031 56.75 38.882812 56.679688 38.699219 56.425781 C 38.375 55.992188 38.699219 54.261719 38.59375 53.609375 C 38.628906 53.539062 38.882812 53.394531 38.917969 53.394531 Z M 41.695312 53.394531 "/>
<path style=" stroke:none;fill-rule:nonzero;fill:rgb(0%,0%,0%);fill-opacity:1;" d="M 35.488281 47.328125 L 35.488281 47.976562 C 34.980469 48.230469 34.441406 47.832031 33.898438 47.761719 C 30.832031 47.328125 24.585938 49.023438 22.238281 47.582031 C 21.878906 47.328125 20.976562 46.390625 21.480469 46.027344 C 21.984375 45.667969 22.273438 46.5 22.636719 46.75 C 24.296875 47.941406 30.902344 46.570312 33.285156 46.785156 C 34.007812 46.824219 34.800781 47.039062 35.488281 47.328125 Z M 35.488281 47.328125 "/>
<path style=" stroke:none;fill-rule:nonzero;fill:rgb(0%,0%,0%);fill-opacity:1;" d="M 21.335938 47.617188 C 22.925781 51.550781 27.976562 50.832031 31.480469 51.515625 C 31.839844 51.589844 32.886719 51.769531 33.105469 51.878906 C 33.539062 52.128906 33.175781 52.742188 32.886719 52.78125 C 32.742188 52.816406 30.648438 52.238281 30.144531 52.203125 C 26.929688 51.734375 23.355469 52.128906 21.15625 49.167969 C 20.6875 48.59375 20 47.363281 21.335938 47.617188 Z M 21.335938 47.617188 "/>
<path style="fill-rule:nonzero;fill:rgb(11.372549%,11.372549%,10.588235%);fill-opacity:1;stroke-width:0.4;stroke-linecap:butt;stroke-linejoin:miter;stroke:rgb(11.372549%,11.372549%,10.588235%);stroke-opacity:1;stroke-miterlimit:10;" d="M 91.702148 161.503984 C 91.702148 161.503984 98.205156 163.300156 99.103242 166.90332 C 99.903945 170.603867 96.495547 167.704023 96.495547 167.704023 C 95.597461 165.702266 90.998828 163.700508 90.998828 163.700508 L 90.998828 162.001719 " transform="matrix(0.361011,0,0,0.361011,0,0)"/>
</g>
</svg>
