<svg version="1.2" xmlns="http://www.w3.org/2000/svg" viewBox="0 0 206 210" width="206" height="210"><style>.a{fill:#fff}.b{fill:#010101}</style><path fill-rule="evenodd" class="a" d="m168.7 13.6v119.1h-119.1v-119.1z"/><path class="a" d="m125.7 39.1q0 1.8 0 3.5h3.5v3.5c1.1 0.1 2.3 0 3.5 0 0 1.2-0.1 2.4 0 3.5-1.2 0.1-2.4 0-3.5 0v3.5c-1.2 0-2.3 0-3.5 0 0-1.1 0.1-2.3 0-3.5-1.3 0-2.7 0.1-4.1 0 0-3.5 0.1-7 0-10.4 1.4 0 2.8 0 4.1 0z"/><path class="a" d="m107.7 107.1c1.1 0.1 2.3 0 3.5 0v3.8c-0.1 0.6-2.7 0.3-3.5 0.3 0-1.3 0-2.7 0-4.1z"/><path class="a" d="m103.6 60.6c0.1 4.9 0 9.7 0 14.6h4.1v3.5c-3.7 0.1-7.4-0.1-11 0v-3.5c-2.4-0.1-4.7 0-7 0q0-2.1 0-4.1c3.5 0 7 0 10.4 0 0.1-3.5 0-7 0-10.5 1.2 0.1 2.4 0 3.5 0q0 0 0 0z"/><path class="a" d="m147.2 89.1c2.3-0.1 4.7 0.1 7 0v7.6h-10.5c0-1.2 0-2.3 0-3.5 1.2-0.1 2.4 0 3.5 0 0-1.4 0-2.7 0-4.1z"/><path class="a" d="m100.1 57.2c0 1.1 0 2.3 0 3.4-1.1 0-2.3 0.1-3.5 0v-3.1c0.1-0.7 2.7-0.3 3.5-0.3z"/><path class="a" d="m136.2 85.6c0 1.2 0 2.4 0 3.5h-3.5c-0.1-1.1 0-2.3 0-3.5q1.7 0 3.5 0z"/><path class="a" d="m67.6 85.6c-0.1 1.2 0 2.4 0 3.5-1.2 0-2.4 0.1-3.5 0v-3.1c0.1-0.7 2.7-0.3 3.5-0.4z"/><path class="a" d="m150.7 49.6c0-1.2 0-2.3 0-3.5h3.2c0.6 0.1 0.3 2.7 0.3 3.5 1.1 0.1 2.3 0 3.5 0v3.5h-3.5c0-1.2 0-2.3 0-3.5-1.2 0-2.4 0-3.5 0-0.1 2.5 0.1 5.1 0 7.6-1.2 0-2.3-0.1-3.5 0 0 1.1 0 2.3 0 3.5 2.3 0 4.7-0.1 7 0v6.9c-1.2 0.1-2.3 0-3.5 0v3.5c-1.2 0.1-2.3 0-3.5 0-0.1 1.4 0.1 2.8 0 4.1h-3.5v-4.1c1.2 0 2.3 0.1 3.5 0 0.1-1.1 0-2.3 0-3.5 1.2 0 2.3 0.1 3.5 0v-3.4h-3.5c0-1.2 0.1-2.4 0-3.5-1.2-0.1-2.3 0-3.5 0 0-1.2 0.1-2.4 0-3.5h-7.6c0-1.4 0.1-2.7 0-4.1-1.1 0-2.3 0-3.4 0-0.1-1.1 0-2.3 0-3.5 1.1 0 2.3 0 3.4 0 0.1 1.2 0 2.3 0 3.5 2.5 0.1 5.1-0.1 7.6 0 0.1 1.4-0.1 2.7 0 4.1 1.2 0 2.3 0 3.5 0v-7.6c1.2 0 2.3 0.1 3.5 0z"/><path class="a" d="m143.7 82.2q1.8 0 3.5 0c0 2.3 0.1 4.6 0 6.9-1.2 0.1-2.3 0-3.5 0 0 1.4 0 2.8 0 4.1-1.3 0.1-2.7 0-4.1 0v3.5h-3.5v7c-1.1 0-2.3-0.1-3.4 0 0 1.1 0.2 7.5-0.4 7.5h-6.6v-4h3.5v-3.5h-7.6v-3.5h7.6v3.5c1.2 0 2.3 0 3.5 0 0-3.5 0-7 0-10.5h3.5c0-1.3-0.1-2.7 0-4h3.5c0-1.2-0.1-2.4 0-3.5 1.3-0.1 2.7 0 4 0v-3.5z"/><path class="a" d="m132.7 82.2c0 1.1-0.1 2.3 0 3.5-1.2 0-2.4-0.1-3.5 0 0 1.1 0 2.3 0 3.4h-3.5v-3.4c1.1-0.1 2.3 0 3.5 0 0-1.2 0-2.4 0-3.5z"/><path class="a" d="m67.6 85.6c0-0.8-0.3-3.4 0.3-3.5h7.2v3.5c-2.5 0-5 0-7.5 0z"/><path class="a" d="m82.1 78.7q0 1.7 0 3.5c-1.2-0.1-2.3 0-3.5 0v-3.2c0.1-0.6 2.7-0.3 3.5-0.3z"/><path class="a" d="m114.7 75.2c0 2.3-0.1 4.7 0 7h3.5c0-1.2-0.1-2.4 0-3.5h3.4v3.5h-3.4c-0.1 1.1 0 2.3 0 3.5h-3.5c-0.1 1.1 0 2.3 0 3.4-2.4 0-4.7 0.1-7 0v-3.4c-3.7-0.1-7.4 0.1-11.1-0.1v-3.4h11.1v-3.5c1.2-0.1 2.3 0 3.5 0v-3.5c1.1 0 2.3 0 3.5 0z"/><path class="a" d="m136.2 71.1q0 2 0 4.1h-3.5c0-1.4-0.1-2.7 0-4.1 1.1 0 2.3 0 3.5 0z"/><path class="a" d="m85.6 71.1c0 1.4 0 2.7 0 4.1 1.4 0 2.7-0.1 4.1 0 0 1.1 0 2.3 0 3.5-2.5-0.1-5.1-0.1-7.6 0 0-2.5 0-5.1 0-7.6 1.2 0 2.3 0 3.5 0z"/><path class="a" d="m64.1 49.6c-0.1 2.5 0.1 5.1 0 7.6 2.5-0.1 5.1 0 7.6 0 0 1.1-0.1 2.3 0 3.5h10.4c0.1 1.1 0 2.3 0 3.4-4.8 0-9.7-0.1-14.5 0 0-1.1 0-2.3 0-3.5-2.3 0.1-4.7 0-7 0 0-3.6 0.2-7.3 0-11 1.2 0 2.4 0 3.5 0z"/><path class="a" d="m89.7 67.6v3.5c-1.4 0-2.8 0-4.1 0 0-1.2 0-2.3 0-3.5 1.3 0.1 2.7 0 4.1 0z"/><path class="a" d="m107.7 57.2c0 1.1-0.1 2.3 0 3.5q-2 0-4.1-0.1c0-1.1 0-2.3 0-3.4q2-0.1 4.1 0z"/><path class="a" d="m121.6 49.6q0 1.8 0 3.5c-1.1 0-6.9 0.3-6.9-0.3v-3.2c2.3 0.1 4.6-0.1 6.9 0z"/><path class="a" d="m136.2 17.1c0 1.3 0 2.7 0 4-1.2 0.1-2.4 0-3.5 0 0-1.3-0.1-2.7 0-4 1.1-0.1 2.3-0.1 3.5 0z"/><path class="a" d="m150.7 125.2c0 1.3 0 2.7 0 4-1.2 0-2.3 0.1-3.5 0v-3.7c0.1-0.6 2.7-0.3 3.5-0.3z"/><path class="a" d="m114.7 75.2c-0.1-1.4 0-2.7 0-4.1h-7v-3.5h7v-3.5h6.9v3.5h-3.4v3.5h11v4.1h3.5c0 1.1 0 2.3 0 3.5 3.7 0 7.4-0.1 11 0v3.5q-2 0-4 0c-0.1 1.1 0 2.3 0 3.5-1.2 0-2.4-0.1-3.5 0-0.1-1.2 0-2.4 0-3.5h-3.5q0-1.8 0-3.5c-2.3-0.1-4.7 0-7 0v-3.5c-3.7 0.1-7.4-0.1-11 0q0 0 0 0z"/><path class="a" d="m89.7 64.1c1.1 0.1 6.9-0.2 7 0.4v3.1c-2.4 0.1-4.7 0-7 0q0-1.7 0-3.5z"/><path class="a" d="m85.6 64.1q0 1.8 0 3.5c-1.2 0-2.3 0.1-3.5 0 0-1.1 0-2.3 0-3.5z"/><path class="a" d="m132.7 21.1q0 1.8 0 3.5-1.8 0-3.5 0c0-1.1 0-2.3 0-3.5q1.7 0 3.5 0z"/><path class="a" d="m111.2 57.2c2.3 0 4.6-0.1 7 0v3.1c-0.1 0.6-5.9 0.3-7 0.4 0-1.2 0-2.4 0-3.5z"/><path class="a" d="m89.7 24.6v3.5c-1.2 0-7.5 0.3-7.6-0.3v-3.2c2.5 0.1 5.1-0.1 7.6 0z"/><path class="a" d="m100.1 57.2c0.1-0.9-0.3-4 0.4-4.1h3.1c0.1 1.3 0 2.7 0 4.1-1.1 0-2.3-0.1-3.5 0z"/><path class="a" d="m129.2 24.6q0 1.8 0 3.5h-7.6v-3.2c0.1-0.6 6.5-0.3 7.6-0.3z"/><path class="a" d="m107.7 57.2c0-1.4 0-2.8 0-4.1h3.1c0.7 0.1 0.4 3.2 0.4 4.1q-1.8 0-3.5 0z"/><path class="a" d="m136.2 24.6c-0.1 1.2 0 2.4 0 3.5-1.2 0-2.4 0-3.5 0-0.1-1.1 0-2.3 0-3.5 1.1 0 2.3 0 3.5 0z"/><path class="a" d="m129.2 60.6c1.1 0.1 2.3 0 3.5 0v3.5h3.1l0.3-3.5h3.5v10.5c-1.1 0-2.3 0-3.5 0q0-1.7 0-3.5h-10.4v-3.5h3.5v-3.5z"/><path class="a" d="m111.2 60.6c-0.1 1.2 0 2.4 0 3.5h-3.2c-0.6 0-0.3-2.7-0.3-3.5q1.7 0.1 3.5 0z"/><path class="a" d="m93.2 28.1c0 1.1-0.1 2.3 0 3.5-1.2-0.1-2.4 0-3.5 0v-3.5q1.7 0 3.5 0z"/><path class="a" d="m125.7 53.1c0.1 1.3 0 2.7 0 4.1h3.5v3.4c-2.5 0-5.1 0.1-7.6 0 0-2.5 0.1-5 0-7.5 1.4 0 2.8 0 4.1 0z"/><path class="a" d="m89.7 31.6v3.5c-1.4 0-2.8-0.1-4.1 0-0.1 1.3 0.1 2.7 0 4h-3.5v-4c1.2-0.1 2.3 0 3.5 0 0.1-1.2 0-2.4 0-3.5 1.4 0 2.7 0 4.1 0z"/><path class="a" d="m93.2 31.6c1.1 0 2.3 0 3.4 0 0.1 1.1 0 2.3 0 3.5q-1.7 0-3.4 0 0-1.8 0-3.5z"/><path class="a" d="m111.2 31.6c0 1.1 0 2.3 0 3.5h-3.5l-0.3 14.5h-7.3v-3.5h3.5v-3.5h-7c0-2.5 0.1-5 0-7.5 1.2 0 2.4-0.1 3.5 0q0 2 0 4h3.5v-4c-1.1-0.1-2.3 0-3.5 0q0-1.8 0-3.5c3.7-0.1 7.4 0.1 11.1 0z"/><path class="a" d="m118.1 39.1c0.1-1.1-0.2-7.4 0.4-7.5h3.1c0 2.5 0 5 0 7.5-1.1 0-2.3 0.1-3.5 0z"/><path class="a" d="m93.2 35.1c0 4.8-0.1 9.7 0 14.5h-3.2c-0.7-0.1-0.3-13-0.3-14.5q1.7 0 3.5 0z"/><path class="a" d="m111.2 35.1h3.5v4c1.1 0.1 2.3 0 3.4 0 0 2.4 0.1 4.7 0 7h-3.4v-3.5h-3.5c0-2.5 0-5 0-7.5q0 0 0 0z"/><path class="a" d="m129.2 35.1c-0.1 1.3 0 2.7 0 4-1.2 0.1-2.3 0-3.5 0q0-2 0-4z"/><path class="b" d="m132.7 17.1c-0.1 1.3 0 2.7 0 4q-1.8 0-3.5 0c0-1.3 0-2.7 0-4 1.1-0.1 2.3 0 3.5 0z"/><path class="b" d="m136.2 17.1c0.8 0 3.4-0.3 3.5 0.3v3.7c-1.2 0.1-2.4 0-3.5 0 0-1.3 0-2.7 0-4z"/><path class="b" d="m136.2 21.1c0 1.2 0 2.4 0 3.5-1.2 0-2.4 0-3.5 0q0-1.7 0-3.5c1.1 0 2.3 0.1 3.5 0z"/><path class="b" d="m89.7 24.6c1.1 0.1 2.3 0 3.5 0 0 1.2-0.1 2.3 0 3.5q-1.8 0-3.5 0z"/><path class="b" d="m132.7 24.6c0 1.2-0.1 2.3 0 3.5-1.2 0.1-2.4 0-3.5 0q0-1.7 0-3.5 1.7 0 3.5 0z"/><path class="b" d="m93.2 28.1c5.9 0 12 0 18 0 0 1.1-0.1 2.3 0 3.5-3.7 0.1-7.4-0.1-11.1 0 0 1.1 0 2.3 0 3.5 1.2 0 2.4 0 3.5 0v4h-3.5q0-2 0-4c-1.1-0.1-2.3 0-3.5 0 0-1.2 0.1-2.4 0-3.5-1.1 0-2.3 0-3.5 0 0-1.2 0.1-2.3 0.1-3.5z"/><path class="b" d="m93.2 31.6q0 1.7 0 3.5-1.8 0-3.5 0v-3.5c1.1 0 2.3-0.1 3.5 0z"/><path class="b" d="m129.2 35.1h3.5c0 3.7-0.1 7.4 0 11-1.2 0-2.4 0-3.5 0v-3.5h-3.5c0-1.1 0-2.3 0-3.5 1.2 0 2.3 0.1 3.5 0 0-1.3-0.1-2.7 0-4z"/><path class="b" d="m136.2 46.1c0-3.7 0-7.4 0-11h3.5v11c-1.2 0.1-2.4 0-3.5 0q0 1.8 0 3.5c-1.2 0-2.4 0-3.5 0-0.1-1.1 0-2.3 0-3.5 1.1 0.1 2.3 0.1 3.5 0z"/><path class="b" d="m60.6 49.6c0-1.2 0-2.3 0-3.5h-3.5v-3.5h18v3.5h-11c0 1.2 0 2.4 0 3.5-1.1 0-2.3 0-3.5 0z"/><path class="b" d="m136.2 49.6c2.5 0 5 0 7.5 0v-7h18v7h3.5c0.1-1.2 0-2.3 0-3.5h3.5v3.5h-3.5c0 1.2 0.1 2.3 0 3.5h-3.5c0 1.4 0.1 2.7 0 4.1-1.3 0-2.7-0.1-4 0v7h4c0.1-2.4 0-4.7 0-7 1.2-0.1 2.4 0 3.5 0 0.1-1.4 0-2.8 0-4.1h3.5v11.1h-3.5v3.4h-3.5v3.5h-7.5c0 1.4 0 2.8 0 4.1-1.2 0-2.4 0-3.5 0v3.2c0.1 0.6 2.7 0.3 3.5 0.3 0 1.2 0 2.3 0 3.5h3.5v-3.5c-1.2 0-2.4 0-3.5 0-0.1-1.2 0-2.3 0-3.5 2.5-0.1 5 0.1 7.5 0v10.5h-4v11h4v-3.5c1.2 0 2.4 0 3.5 0 0.1-1.3 0-2.7 0-4.1h3.5v4.1c-1.1 0-2.3 0-3.5 0-0.1 3.5 0.1 7 0 10.5h3.5v3.1l-3.5 0.3v11.1h3.5v3.5h-10.7c-0.6-0.1-0.3-2.7-0.3-3.5 1.3-0.1 2.7 0 4 0v-3.5h-4v3.5c-1.2 0-2.4-0.1-3.5 0v3.5c-1.2 0-2.4-0.1-3.5 0 0-1.2 0-2.4 0-3.5h-7v3.5c2.3-0.1 4.7 0.1 7 0 0 1.1 0 2.3 0 3.5-0.8 0-3.4-0.3-3.5 0.3v3.7c1.2 0.1 2.3 0 3.5 0 0 0.8 0.3 3.4-0.3 3.5h-6.7v-3.5c-1.3 0-2.7 0.1-4 0q0 1.8 0 3.5h-10.2c-0.6-0.1-0.3-2.7-0.3-3.5-1.2 0-2.3 0.1-3.5 0v-4h3.5c0 1.3-0.1 2.7 0 4 3.5 0.2 7-0.1 10.5 0q0-2 0-4h-7v-3.5h-18v3.5h-7v7.5h-4.1v-18h4.1c0-1.1-0.1-2.3 0-3.5 0.8 0 3.4 0.3 3.5-0.3v-3.7c-1.2-0.1-2.4 0-3.5 0 0-3.5 0-7 0-10.5h3.5l0.3 3.5h6.6v-3.5h3.5v-3.5h-3.5v-4.1c-1.1 0-2.3 0.1-3.4 0 0-1.1-0.1-2.3 0-3.4h3.4c0.1-1.2 0-2.4 0-3.5h3.5v-3.5h-3.5c0 1.1 0.1 2.3 0 3.5h-3.4c-0.1-2.3 0-4.7 0-7 3.6-0.1 7.3 0.1 11 0v3.5c2.3 0 4.6 0 7 0q-0.1 1.7 0 3.5h-3.5c0 1.1 0 2.3 0 3.5-1.2 0-2.4-0.1-3.5 0v3.5h3.5c0-1.2-0.1-2.4 0-3.5 1.1-0.1 2.3 0 3.5 0 0 1.1-0.1 2.3 0 3.5h3.5c-0.1 1.3 0 2.7 0 4h-3.5c-0.1 3.5 0 7 0 10.5-1.2 0-2.4 0-3.5 0v-3.5h-7.6v3.5h7.6v3.5h-3.5v4h6.6c0.6 0 0.3-6.4 0.4-7.5 1.1-0.1 2.3 0 3.4 0v-7h3.5v-3.5c1.4 0 2.8 0.1 4.1 0q0 1.8 0 3.5h10.5v-7.6c-2.4 0.1-4.7 0-7 0 0.1-2.3-0.1-4.6 0-6.9-1.2-0.1-2.3 0-3.5 0v-3.5c-3.7-0.1-7.4 0-11 0 0-1.2-0.1-2.4 0-3.5h3.4c0-1.4 0.1-2.7 0-4.1 1.2 0 2.4 0 3.5 0v-10.5h-3.5l-0.3 3.5h-3.1v-3.5c-1.2 0-2.4 0.1-3.5 0v-3.5h-3.5c-0.1-1.3 0.1-2.7 0-4 1.1-0.1 2.3 0 3.5 0v-3.5c1.1 0 2.3 0 3.4 0 0.1 1.2 0 2.3 0 3.5 1.2 0 2.4-0.1 3.5 0 0.1 1.3 0 2.7 0 4.1h7.6c0 1.1 0 2.3 0 3.4 1.2 0.1 2.3 0 3.5 0 0 1.2 0 2.4 0 3.5h3.5v3.5c-1.2 0-2.4 0-3.5 0-0.1 1.2 0.1 2.4 0 3.5-1.2 0-2.3 0-3.5 0v4.1h3.5c0-1.4-0.1-2.7 0-4.1 1.1 0 2.3 0 3.5 0v-3.5c1.1 0 2.3 0 3.5 0v-7c-2.4 0-4.7 0.1-7 0-0.1-1.1 0-2.3 0-3.5 1.1 0 2.3 0.1 3.5 0 0-2.5-0.1-5 0-7.5 1.1-0.1 2.3-0.1 3.5 0 0 1.1-0.1 2.3 0 3.5h3.5v-3.5c-1.2 0-2.4 0-3.5 0 0-0.8 0.3-3.4-0.4-3.5h-3.1c-0.1 1.1 0 2.3 0 3.5-1.2 0-2.4 0-3.5 0v7.5c-1.2 0.1-2.3 0-3.5 0-0.1-1.3 0-2.7 0-4-2.5-0.1-5.1 0.1-7.6 0 0-1.2 0-2.4 0-3.5zm18 50.6v11h3.5v-7.6h4.1v-3.1zm-3.5 3.5h-11v11h11zm-29 3.5h-7v4.1h7zm-10.5 11c-1.2 0-2.3 0-3.5 0v3.5h3.5c0-1.2 0-2.3 0-3.5 2.3-0.1 4.7 0.1 7 0v-3.5h-7c0 1.2 0 2.3 0 3.5zm18-3.5h-7.5v3.5h7.5zm7 3.5c0-1.2 0-2.3 0-3.5h-3.5v3.5c1.2 0 2.3 0 3.5 0 0 1.2 0 2.3 0 3.5h3.5v-3.5c-1.2 0-2.3 0-3.5 0z"/><path class="b" d="m53.6 57.2q-2 0-4 0v-7.6h4c0.1 2.5 0 5.1 0 7.6q1.8 0 3.5 0v-7.6c1.2 0 2.4 0 3.5 0 0.1 3.7 0 7.4 0 11-1.1 0.1-2.3 0-3.5 0v3.5c-1.1 0.1-2.3 0-3.5 0 0 2.4 0.1 4.7 0 7h-4v-7c1.3 0 2.7 0.1 4 0q0.1-3.5 0-6.9z"/><path class="b" d="m64.1 49.6c1.2 0 2.3 0 3.5 0v3.5q2 0 4.1 0c0-1.2-0.1-2.3 0-3.5h3.4v3.5c-1.1 0-2.3 0-3.4 0-0.1 1.3-0.1 2.7 0 4.1-2.6 0-5.1-0.1-7.6 0 0.1-2.5-0.1-5.1 0-7.6z"/><path class="b" d="m121.6 49.6c1.4 0.1 2.8 0 4.1 0 0 1.2-0.1 2.3 0 3.5-1.3 0.1-2.7 0-4.1 0q0-1.7 0-3.5z"/><path class="b" d="m71.6 57.2c2.4-0.1 4.7 0 7 0v-4.1h3.5v4.1h3.5c0 2.3 0 4.6 0 6.9h-3.5c0-1.1 0-2.3 0-3.5h-10.5c0-1.1 0.1-2.3 0-3.4z"/><path class="b" d="m103.6 57.2c0.1 1.1 0 2.3 0 3.4-1.1 0-2.3 0.1-3.5 0 0-1.1 0-2.3 0-3.4 1.2-0.1 2.4 0 3.5 0z"/><path class="b" d="m111.2 57.2c0 1.1 0 2.3 0 3.5q-1.8 0-3.5 0c-0.1-1.2 0-2.4 0-3.5q1.7 0 3.5 0z"/><path class="b" d="m136.2 24.6c1.1 0.1 2.3 0 3.5 0v7h-7c-0.1-1.1 0-2.3 0-3.5 1.1 0 2.3 0 3.5 0 0-1.1-0.1-2.3 0-3.5z"/><path class="b" d="m60.6 60.6c2.3 0 4.7 0.1 7 0 0 1.2 0 2.4 0 3.5-1.2 0.1-2.3 0-3.5 0v3.5h-3.5c0-2.3 0-4.6 0-7z"/><path class="b" d="m82.1 64.1c0 1.2 0 2.4 0 3.5 1.2 0.1 2.3 0 3.5 0 0 1.2 0 2.4 0 3.5-1.2 0.1-2.3 0-3.5 0 0 2.5 0 5.1 0 7.6-0.8 0-3.4-0.3-3.5 0.3v3.2c1.2 0 2.3-0.1 3.5 0v3.5c1.2 0 2.3-0.1 3.5 0 0 1.1-0.1 2.3 0 3.5 1.4 0 2.7-0.1 4.1 0q0 2 0 4c1.1 0.1 2.3 0 3.5 0v7c-2.5 0-5.1 0-7.6 0v3.5h4.1v7.6c-2.5 0-5.1-0.1-7.6 0 0.1 1.1 0 2.3 0 3.4h7.6v10.5c1.1 0 2.3 0 3.5 0 0-1.1-0.1-2.3 0-3.5h3.5c0-1.1-0.1-2.3 0-3.5-1.2 0-2.4 0-3.5 0v-7h3.5c-0.1 2.4 0 4.7 0 7 1.1 0.1 2.3 0 3.4 0v7c-2.3-0.1-4.6 0.1-6.9 0-0.1 1.4 0 2.7 0 4.1h-3.5v3.5h-11.1v-3.5h7v-4.1h-7v-13.9c1.2-0.1 2.4 0 3.5 0 0-1.4 0.1-2.8 0-4.1h-3.5v-7c2.3 0 4.7 0.1 7 0v-3.5h4.1c0-1.1 0-2.3 0-3.5-1.4 0-2.7 0.1-4.1 0 0-1.3 0.1-2.7 0-4-1.1-0.1-2.3-0.1-3.5 0 0 2.5 0 5 0 7.5h-10.4v-3.5h6.9v-4c1.2-0.1 2.4 0 3.5 0q0-1.8 0-3.5c-2.3-0.1-4.6 0-6.9 0v-3.5h-7.3c-0.6 0.1-0.3 2.7-0.3 3.5-0.8 0-3.4-0.3-3.5 0.3v3.2c1.2 0 2.3-0.1 3.5 0-0.1 2.5 0 5 0 7.5h-3.5v7h-3.5v-7h-3.5c0-1.1 0.1-2.3 0-3.5 1.2 0 2.4 0.1 3.5 0v-4h-3.5q0 2 0 4c-1.1 0.1-2.3 0-3.5 0v10.5h-4v-18h4.1v-10.5h3.4v-4h10.5c-0.1-2.4 0.1-4.7 0-7 4.8-0.2 9.7 0 14.5 0zm-3.5 3.5h-6.9v3.4h6.9zm-3.4 7.6h-3.5v3.5h3.5zm-14.6 7h-3.5v3.5h3.5z"/><path class="b" d="m89.7 64.1q0 1.8 0 3.5c-1.4 0.1-2.8 0.1-4.1 0q0-1.7 0-3.5 2 0 4.1 0z"/><path class="b" d="m89.7 71.1q0 2 0 4.1c-1.4-0.1-2.8 0-4.1 0 0-1.4 0-2.7 0-4.1 1.4 0 2.7 0 4.1 0z"/><path class="b" d="m89.7 75.2c2.3 0.1 4.6-0.1 7 0v3.5c3.6-0.1 7.3 0.1 11 0v3.5h-11.1v3.4c-1.1 0-2.3 0.1-3.4 0v-6.9c-1.2-0.1-2.4 0-3.5 0 0-1.2 0-2.4 0-3.5z"/><path class="b" d="m89.7 78.7c-0.1 1.1 0 2.3 0 3.5-2.5-0.1-5.1 0-7.6 0q0-1.8 0-3.5c2.5-0.1 5.1-0.1 7.6 0z"/><path class="b" d="m132.7 82.2h3.5c0 1.1-0.1 2.3 0 3.5q-1.8 0-3.5 0c-0.1-1.2 0-2.4 0-3.5z"/><path class="b" d="m143.7 82.2v3.5c-1.3 0-2.7-0.1-4.1 0 0.1-1.2 0-2.4 0-3.5 1.4 0 2.8 0 4.1 0z"/><path class="b" d="m75.1 85.6v3.5c-2.5 0-5 0.1-7.5 0 0-1.1-0.1-2.3 0-3.5 2.5 0 5 0 7.5 0z"/><path class="b" d="m96.6 85.6c3.7 0.2 7.4 0 11.1 0v3.5c2.3 0.1 4.6 0 7 0-0.1 1.4 0 2.8 0 4.1h-11.1v-4.1h-7v-3.4q0 0 0-0.1z"/><path class="b" d="m139.7 85.6c-0.1 1.2 0 2.4 0 3.5h-3.5c0-1.1 0-2.3 0-3.5 1.1 0 2.3 0.1 3.5 0z"/><path class="b" d="m147.2 89.1c0 1.4 0 2.7 0 4.1-1.1 0-2.3-0.1-3.5 0q0-2 0-4.1c1.2 0 2.3 0.1 3.5 0z"/><path class="b" d="m107.7 107.1c0 1.4 0 2.8 0 4.1-1.4 0.1-2.7 0-4.1 0v-3.7c0.1-0.6 3.3-0.4 4.1-0.4z"/><path class="b" d="m89.7 17.1c-2.5-0.1-5.1 0-7.6 0v-3.5h7.6c0 1.1-0.1 2.3 0 3.5 0.8 0 3.4-0.3 3.5 0.3v3.7c-1.2 0.1-2.4 0-3.5 0q0 1.8 0 3.5c-2.5-0.1-5.1 0.1-7.6 0v3.2c0.1 0.6 6.4 0.3 7.6 0.3v3.5c-1.4 0-2.8 0-4.1 0 0 1.1 0.1 2.3 0 3.5-1.2 0-2.3 0-3.5 0v4.1h3.5c0-1.4-0.1-2.8 0-4.1 1.4-0.1 2.7 0 4.1 0 0 1.5-0.4 14.4 0.3 14.5h3.2c-0.1-4.8 0-9.7 0-14.5q1.7 0 3.5 0c0 2.5-0.1 5 0 7.5h6.9v3.5h-3.5v3.5h7.3l0.3-14.5h3.5c0 2.5 0 5.1 0 7.6h3.5v3.5h3.5c0-2.4-0.1-4.7 0-7 1.1 0 2.3 0 3.5 0 0 3.5-0.1 7 0 10.4-2.4 0-4.7 0.1-7 0v3.2c0.1 0.6 5.9 0.3 7 0.3 0 2.5-0.1 5.1 0 7.6 2.5 0.1 5-0.1 7.5 0v3.5h-3.5v3.5h10.5c0 1.1 0 2.3 0 3.4-1.2 0.1-2.3 0-3.5 0 0 1.4 0 2.8 0 4.1h-3.5v-4.1h-11v-3.4h3.5v-3.5h-7v3.5h-7v3.4h7c0 1.4 0 2.8 0 4.1-1.2 0.1-2.3 0-3.5 0v3.5c-1.1 0-2.3 0-3.5 0v-3.5h-4c-0.1-4.8 0-9.7 0-14.5q2 0 4 0c0.1 0.8-0.3 3.4 0.4 3.5h3.1c0-1.2 0-2.4 0-3.5 1.1 0 6.9 0.3 7-0.3v-3.2c-2.3 0-4.7 0-7 0 0-0.9 0.3-4-0.3-4.1h-3.2c0 1.4 0.1 2.7 0 4.1q-2 0-4 0c-0.1-1.4 0-2.7 0-4.1h-3.2c-0.6 0.1-0.3 3.2-0.3 4.1-0.8 0-3.4-0.3-3.5 0.3v3.2c1.1 0 2.3-0.1 3.5 0-0.1 3.5 0 7 0 10.4-3.5 0.1-7 0-10.5 0v-3.4c2.3-0.1 4.7 0 7 0v-3.2c-0.1-0.6-5.9-0.3-7-0.3 0-2.4 0-4.7 0-7h3.5v-4.1h-7.6v-3.5h-3.5v-3.1l3.5-0.4v-3.4h-6.9v-21.5c3.6-0.1 7.3 0.1 11 0 0-1.4 0.1-2.8 0-4.1z"/><path class="b" d="m118.1 21.1c-1.1 0-2.3 0.1-3.4 0v-7.5h11v3.5h-7.6c0 1.3 0.1 2.7 0 4 3.7 0.2 7.4 0 11.1 0-0.1 1.2 0 2.4 0 3.5-1.2 0-7.5-0.2-7.6 0.3v3.2h7.6c0 2.3 0 4.7 0 7h-3.5c0 1.3 0 2.7 0 4.1-1.4 0-2.7 0-4.1 0 0-2.6 0-5.1 0-7.6h-3.1c-0.7 0.1-0.4 6.4-0.4 7.6-1.1-0.1-2.3 0-3.5 0v-4.1h-3.4c0-1.2 0-2.3 0-3.5 1.1 0 2.3 0 3.4 0v-7h3.5c0.1-1.1 0-2.3 0-3.5q0 0 0 0z"/><path class="b" d="m150.7 125.2c3.7-0.1 7.4 0.1 11 0 0.1 1.3 0 2.7 0 4 1.2 0.1 2.4 0 3.5 0v3.5h-3.5c0-1.1 0.1-2.3 0-3.5-3.6-0.1-7.3 0.2-11 0 0-1.3 0-2.7 0-4z"/><path class="b" d="m132.7 17.1c0-1.2-0.1-2.4 0-3.5h3.1c0.7 0.1 0.3 2.7 0.4 3.5-1.2-0.1-2.4-0.1-3.5 0z"/><path class="b" d="m39.1 153.6v8.2c-7.3-1-8.6 1-8.1 8.1h8.1l-1.2 8.1h-6.9v24.4h-9.3v-24.4h-5.3v-8.1h5.3c-1.8-13.5 4.8-17.4 17.4-16.3z"/><path class="b" d="m75.1 13.6v25.5l-25.5 0.1v-25.6zm-3.5 3.5h-18v18h18z"/><path class="b" d="m75.1 107.1v25.6h-25.5v-25.6zm-3.5 4.1h-18v18h18z"/><path class="b" d="m168.7 13.6v25.5h-25v-25.5zm-3.5 3.5h-18v18h18z"/><path class="b" d="m103 162.4v8.7c2.9-0.1 6.1-0.5 7.8 2.3 1.4 2.4 1.4 14.5 0.2 17-1.4 3-8.4 2.9-9.3 0.9l-0.3-28zm0 11.4v15.7c0 1.5 4.4 2 5.7 0.7 1.9-2 3.4-20.6-4.8-17.2l-0.9 0.8z"/><path class="b" d="m140.7 171.2c13.1-2.7 15.8 23.6 1.1 21.2-11.5-1.8-9.7-19.4-1.1-21.2zm0.5 1.7c-6.5 1.5-8.9 14.9-0.1 17.3 12.7 3.5 10.1-19.5 0.1-17.3z"/><path class="b" d="m121.5 171.2c12.8-2.3 15.6 23.8 0.6 21.3-11.1-2-9.8-19.6-0.6-21.3zm0 1.7c-5.8 1.3-8 12.8-2.2 16.5 13.7 8.5 14.6-19.2 2.2-16.5z"/><path class="b" d="m155.9 162.4v17.1l1.2 0.6c1.2-0.6 5-6.9 6.4-8.2 0.8-0.7 1.1-1 2.3-0.8 1.1 1.1-5 6.5-5.2 8.1 6.8 0.4 4 8.8 5.2 13.4h-1.7c-0.2-2.8-0.2-6.3-0.7-9-0.8-5.5-6.9-1-6.9 0v8.4c-1.1 0.2-1.6-0.4-1.7-1.4-0.9-4.7 0.1-12.9 0-18.1-0.1-2.7-2.4-9.4 1.1-10.1z"/><path class="b" d="m97.8 180.9l-8.4 0.6c-0.7 3.4-0.9 8.7 3.5 9.3 2.9 0.4 3.6-0.8 3.8-3.5l1.7 0.4c0.9 6.3-8.4 6.7-10.4 1.6-1-2.3-1-11.7-0.6-14.4 0.5-3.5 3.1-5.1 6.6-4.4 3.7 0.7 4.1 7.5 3.8 10.5zm-1.7-1.8c-1.4-2.4 0.8-6.8-3.2-7-4-0.2-4 4-3.8 7h7z"/><path class="b" d="m69.8 191.9c-5.3 2-10.2 0.4-9.2-6 0.9-5.3 7.9-4.3 8.2-5.3 0-2.6 0.3-5.6-1.8-7.5-2.2-1.2-3.5 2.4-5.8 2-1.9-1.9 7.3-7.9 9-0.6 0.6 2.2 0.7 16.2-0.4 17.4zm-1-8.6c-8.5-1.1-8.8 9.8-0.1 6.9z"/><path class="b" d="m60 165.3h-10.4v11.6l5.8 0.3c0 2.3-4.5 1.2-5.8 1.4v13.4l-1.8-0.9v-26.1c0-0.2-0.8-0.8-0.6-1.5h12l0.8 1.8z"/><path class="b" d="m84.4 175.7l-1.7-0.4c-0.2-3.3-5.4-3.3-6.3-0.3-0.3 1.3-0.3 13.1 0.2 14.1 1 2 4.1 2.1 5.5 0.3 0.9-1.1-0.1-2.6 2.3-2.1 1.5 6.9-9 6.8-9.8 1.5-0.3-1.9-0.4-13.5 0.1-15 1.2-4.3 10.9-3.9 9.7 1.9z"/><path class="b" d="m100.1 96.7c-1.1 0-2.3 0-3.5 0v-3.5h3.5c0.1 1.1 0 2.3 0 3.5 1.2 0 2.4 0 3.5 0v3.1c-0.1 0.7-2.7 0.4-3.5 0.4 0 2.3 0.1 4.6 0 7h-6.9v-3.5h3.4v-3.5c1.2 0 2.4 0 3.5 0 0-1.2 0.1-2.4 0-3.5z"/><path fill-rule="evenodd" class="b" d="m121.6 125.2v7.5h-3.5v-7.5z"/><path fill-rule="evenodd" class="b" d="m168.7 71.1v7.6h-3.5v-7.6z"/><path fill-rule="evenodd" class="b" d="m75.1 100.2v3.5h-7.5v-3.5z"/><path class="b" d="m107.7 17.1c0-1.2-0.1-2.4 0-3.5h3.5v3.5c-1.2 0-2.4-0.1-3.5 0-0.1 1.3 0 2.7 0 4-1.4 0.1-2.7 0-4.1 0 0 1.2 0.1 2.4 0 3.5h-3.5v-3.5c1.2 0 2.4 0.1 3.5 0 0.1-1.3 0-2.7 0-4 1.4-0.1 2.7 0 4.1 0z"/><path fill-rule="evenodd" class="b" d="m53.6 42.6v3.5h-4v-3.5z"/><path fill-rule="evenodd" class="b" d="m168.7 82.2v3.5h-3.5v-3.5z"/><path fill-rule="evenodd" class="b" d="m114.7 129.2v3.5h-3.5v-3.5z"/><path class="a" d="m150.7 103.7v11h-11v-11zm-3.5 3.4h-3.5v4.1h3.5z"/><path fill-rule="evenodd" class="a" d="m154.2 100.2l7.6 0.3-0.1 3.2h-4v7.5h-3.5v-11z"/><path fill-rule="evenodd" class="a" d="m121.6 107.1v4.1h-6.9v-4.1z"/><path fill-rule="evenodd" class="a" d="m129.2 114.7v3.5h-7.6v-3.5z"/><path class="a" d="m111.2 118.2c0-1.2 0-2.3 0-3.5h7v3.5c-2.4 0-4.7-0.1-7 0-0.1 1.2 0 2.3 0 3.5h-3.5v-3.5c1.1 0 2.3 0 3.5 0z"/><path class="a" d="m136.2 118.2c-1.2 0-2.4 0-3.5 0v-3.5h3.5c0 1.2-0.1 2.3 0 3.5 1.1 0 2.3 0 3.5 0v3.5h-3.5c-0.1-1.2 0-2.3 0-3.5z"/><path fill-rule="evenodd" class="a" d="m78.6 67.6v3.5h-7v-3.5z"/><path fill-rule="evenodd" class="a" d="m75.1 75.2v3.5h-3.5v-3.5z"/><path fill-rule="evenodd" class="a" d="m60.6 82.2v3.4h-3.5v-3.4z"/><path class="a" d="m71.6 17.1v18h-18v-18zm-4 4h-10.5v10.5h10.5z"/><path class="a" d="m71.6 111.2v18h-18v-18zm-4 3.5h-10.5v10.5h10.5z"/><path class="a" d="m165.2 17.1v18h-18v-18zm-3.5 4h-11v10.5h11z"/><path class="a" d="m68.8 183.3l-0.1 6.9c-8.7 2.9-8.4-8 0.1-6.9z"/><path fill-rule="evenodd" class="b" d="m147.2 107.1v4.1h-3.5v-4.1z"/><path fill-rule="evenodd" class="b" d="m67.6 21.1v10.5h-10.5v-10.5z"/><path fill-rule="evenodd" class="b" d="m67.6 114.7v10.5h-10.5v-10.5z"/><path fill-rule="evenodd" class="b" d="m161.7 21.1v10.5h-11v-10.5z"/></svg>