<svg version="1.2" xmlns="http://www.w3.org/2000/svg" viewBox="0 0 216 230" width="216" height="230"><style>.a{fill:#fff}.b{fill:#010101}</style><path fill-rule="evenodd" class="a" d="m66.2 16h122.4v122.4h-122.4z"/><path class="a" d="m133.7 41.4c0-1.2-0.1-2.4 0-3.5h7.5v7h-3.5v-3.5q-2 0-4 0c-0.1 2.3 0 4.6 0 6.9-2.4 0-4.7 0.1-7 0 0-1.1 0-2.3 0-3.4 1.1-0.1 2.3 0 3.5 0v-3.5c1.1 0 2.3 0 3.5 0q0 0 0 0z"/><path class="a" d="m126.7 109.9c-0.1 1.2 0 2.4 0 3.5h-6.7c-0.6 0-0.3-2.7-0.3-3.5 2.3 0 4.7 0.1 7 0z"/><path class="a" d="m108.7 109.9q0 1.8 0 3.5h3.5c0 1.2-0.1 2.4 0 3.5h14.5v3.5h3.2l0.3-3.5h3.5v-3.5h7.5v3.5h-3.5v3.5q1.8 0 3.5 0v3.5h-3.5v-3.5q-2 0-4 0v3.5c-3.5-0.1-7 0.1-10.5 0 0-1.2 0-2.3 0-3.5h-3.5v3.5c1.2 0 2.4 0 3.5 0 0.1 1.3 0 2.7 0 4.1-2.5 0-5 0.1-7.5 0 0-1.4-0.1-2.8 0-4.1-1.2 0-2.4 0-3.5 0-0.1-1.1 0-2.3 0-3.5h-3.5v3.5c1.1 0 2.3 0 3.5 0 0 1.4-0.1 2.7 0 4.1 1.1 0 2.3-0.1 3.5 0-0.1 0.8 0.3 3.4-0.4 3.5h-6.6v-3.5h-7v-7.6l3.5-0.3v-6.6c-1.1-0.1-2.3 0-3.5 0 0-1.2 0-2.4 0-3.5 2.3 0 4.7-0.1 7 0z"/><path class="a" d="m148.2 105.9c0 1.3 0 2.7 0 4h3.5v3.5h-6.7c-0.6 0-0.3-6.4-0.3-7.5 1.2 0 2.4 0 3.5 0z"/><path class="a" d="m151.7 102.4c-0.1 1.2 0 2.3 0 3.5-1.2 0-2.4-0.1-3.5 0q0-1.8 0-3.5c1.1 0 2.3 0 3.5 0z"/><path class="a" d="m126.7 109.9c0.1-2.5-0.1-5 0-7.5h7v-3.5h11c0 2.3 0 4.7 0 7-1.2-0.1-2.3 0-3.5 0v-3.5h-3.5v7.5h-4l-0.4-4h-3.1v4c-1.2 0.1-2.4 0-3.5 0z"/><path class="a" d="m123.2 41.4c1.2 0 2.3-0.1 3.5 0 0 1.1 0 2.3 0 3.5-1.1 0-2.3 0-3.5 0 0-1.2 0-2.4 0-3.5z"/><path class="a" d="m155.7 95.4c1.2 0.1 2.4 0 3.5 0v10.5h-3.5v-3.5q-2 0-4 0c0-1.1 0-2.3 0-3.5 1.3 0 2.7 0 4.1 0 0-1.1-0.1-2.3 0-3.5z"/><path class="a" d="m151.7 95.4c-0.1 1.2 0 2.3 0 3.5q-1.8 0-3.5 0c0-1.2 0-2.3 0-3.5q1.7 0 3.5 0z"/><path class="a" d="m112.1 95.4c1.2 0.1 2.4 0 3.5 0v10.5h4.1c0.1 1.3-0.1 2.7 0 4.1-1.3 0-2.7-0.1-4.1 0v3.5h-3.4c-0.1-1.2 0-2.4 0-3.5-1.2-0.1-2.4 0-3.5 0-0.1-1.4 0-2.8 0-4.1h3.5c0-3.5-0.1-7 0-10.5h-0.1z"/><path class="a" d="m184.2 98.9c-1 0-6.9 0.3-7-0.3v-6.7h3.5v3.5c1.2 0.1 2.4 0 3.5 0 0 1.2 0.1 2.4 0 3.5z"/><path class="a" d="m155.7 55.9c0.1 1.2 0 2.3 0 3.5-0.8 0-3.9 0.3-4-0.3v-3.2c1.3 0 2.7 0 4 0z"/><path class="a" d="m126.7 87.9c-0.1 1.3 0 2.7 0 4-4.8-0.1-9.7 0.2-14.5 0 0-1.3-0.1-2.7 0-4 4.8 0 9.7 0 14.5 0z"/><path class="a" d="m155.7 91.9c0-1.3 0.1-2.7 0-4h-4l0.3-3.5h7.2v3.5h3.5c0.1 1.3-0.1 2.7 0 4 1.2 0.1 2.4 0 3.5 0 0 1.2 0 2.4 0 3.5 1.1 0.1 6.9-0.3 7 0.3v3.2c-2.3 0.1-4.7-0.1-7 0 0 1.2 0 2.3 0 3.5h-3.5v-3.5c1.2 0 2.4 0.1 3.5 0 0.1-1.1 0.1-2.3 0-3.5-1.1 0-2.3 0-3.5 0 0-1.1 0.1-2.3 0-3.5-2.3-0.1-4.7 0-6.9 0 0 1.2 0 2.4 0 3.5-1.4 0-2.8 0-4.1 0 0-1.1 0-2.3 0-3.5 1.3 0 2.7 0.1 4.1 0z"/><path class="a" d="m126.7 84.4c1.1 0 2.3 0 3.5 0 0 1.1-0.1 2.3 0 3.5-1.2 0-2.4 0-3.5 0 0-1.2 0-2.4 0-3.5z"/><path class="a" d="m151.7 44.9c0 1.1-0.1 2.3 0 3.5q-1.8-0.1-3.5 0v-3.5c1.1 0 2.3 0 3.5 0z"/><path class="a" d="m148.2 48.4c0 3.6 0 7.3 0 11h-3.5c0-2.5 0-5.1 0-7.6-3.7 0.1-7.4-0.1-11 0q0-1.7 0-3.5c4.8 0.1 9.6 0 14.5 0.1z"/><path class="a" d="m130.2 87.9c1.1-0.1 2.3 0 3.5 0v-3.5h11v-3.5h-3.5v-3.5h7v10.4l-3.5 0.4v3.7h3.5c0 1.2 0 2.3 0 3.5-3.5 0-7 0-10.5 0 0-1.2 0.1-2.3 0-3.5 1.2 0 2.4 0 3.5 0v-4.1h-3.5q0 2.1 0 4.1c-2.5 0.1-5-0.1-7.5 0-0.1-1.3 0.1-2.7 0-4.1z"/><path class="a" d="m155.7 48.4q0 1.7 0 3.4-2 0-4 0c-0.1-1.1 0-2.3 0-3.4 1.3 0 2.7-0.1 4 0z"/><path class="a" d="m137.7 73.9c0 1.1 0.3 6.9-0.3 7h-3.7v-3.5h-3.5c-0.1-1.1 0-2.3 0-3.5 2.5-0.1 5 0.1 7.5 0z"/><path class="a" d="m97.6 59.4h7.6c0 2.3-0.1 4.7 0 7-1.2 0-2.3 0-3.5 0v11h-11v3.5h3.4v3.5c-2.3 0-4.6 0-6.9 0-0.1-2.3 0-4.7 0-7-1.2 0-2.4 0.1-3.5 0 0-1.1 0-2.3 0-3.5h13.9v-7.5c-1.1 0-2.3 0-3.5 0 0.1-1.2 0-2.4 0-3.5 1.2-0.1 2.4 0 3.5 0z"/><path class="a" d="m137.7 69.9c1.2 0 2.4-0.1 3.5 0v3.7c-0.1 0.6-2.7 0.3-3.5 0.3 0-1.3 0-2.7 0-4z"/><path class="a" d="m94.1 59.4q0 1.7 0 3.5c-1.1 0-2.3 0-3.5 0v-3.5c1.2 0 2.4 0 3.5 0z"/><path class="a" d="m130.2 69.9c0 1.3-0.1 2.7 0 4-1.2 0.1-2.4 0-3.5 0 0 3.5 0 7 0 10.5-4.8-0.2-9.7 0.1-14.5 0-0.1 1.1 0 2.3 0 3.5-1.2 0-2.4 0-3.5 0-0.1-1.2 0-2.4 0-3.5-1.2 0-2.4 0-3.5 0v-3.5h10.4v-3.5h4.1c0-1.2 0-2.3 0-3.5 1.2 0 2.4 0 3.5 0v-4.1c2.3 0 4.7 0.1 7 0.1z"/><path class="a" d="m112.1 69.9c2.6 0 5.1-0.1 7.6 0q0 2 0 4c-2.5 0.1-5 0-7.6 0 0-1.3 0.1-2.7 0-4z"/><path class="a" d="m105.2 51.8c-0.1 1.4 0 2.8 0 4.1h-3.2c-0.6-0.1-0.3-3.2-0.3-4.1 1.2 0 2.3 0 3.5 0z"/><path class="a" d="m133.7 51.8c0 2.5-0.1 5.1 0 7.6h4l0.4-3.5h3.1v3.5h3.5c0 1.2 0 2.3 0 3.5h-3.5v3.5h-3.5c0 1.1 0.1 2.3 0 3.5-2.5-0.1-5-0.1-7.5 0-0.1-1.2 0-2.4 0-3.5h-3.5v-3.5c-1.2 0-2.3 0-3.5 0 0-1.2 0-2.3 0-3.5 1.2 0 2.3 0 3.5 0 0-1.2 0-2.3 0-3.5 1.2 0 2.3 0 3.5 0v-4.1c1.1 0 2.3 0.1 3.5 0z"/><path class="a" d="m148.2 66.4c1.2 0 2.3-0.1 3.5 0l0.3 3.5h3.8v-3.5c2.3-0.1 4.6 0 6.9 0v3.5h-3.5v4h-3.4v7h-3.8l-0.3-7h-7v-4.1h3.5z"/><path class="a" d="m169.7 55.9c0-0.9-0.3-4 0.3-4.1h3.2c0 1.4-0.1 2.8 0 4.1 1.3 0 2.7 0 4.1 0v3.5h-4.1c-0.1-1.2 0.1-2.3 0-3.5-1.2 0-2.4 0-3.5 0-0.1 2.3 0 4.7 0 7h-3.5c0 1.1 0 2.3 0 3.5 2.3 0 4.6-0.1 7 0v7.5h-7c0.1-2.5-0.1-5 0-7.5q-1.7-0.1-3.5 0v-3.5h-7c0-1.2 0.1-2.4 0-3.5 3.5 0.1 7-0.1 10.5 0v-3.5c1.1 0 2.3 0 3.5 0z"/><path class="a" d="m72.6 66.4h3.5v3.1c-0.1 0.6-2.7 0.4-3.5 0.4 0-1.2 0-2.4 0-3.5z"/><path class="a" d="m94.1 51.8c0.1 1.4 0 2.7 0 4.1-0.8 0-3.4 0.3-3.5-0.3v-3.8c1.2 0 2.4 0.1 3.5 0z"/><path class="a" d="m169.7 128c-2.3-0.1-4.7 0-7 0v-4.1h7c0 1.3-0.1 2.7 0 4.1 1.2 0 2.3-0.1 3.5 0v3.1c-0.1 0.6-2.7 0.3-3.5 0.3 0 1.2 0 2.4 0 3.5q-1.8 0-3.5 0v-3.5c1.2 0 2.3 0.1 3.5 0 0-1.1 0-2.3 0-3.4z"/><path class="a" d="m144.7 62.9h3.5v3.5c-1.2-0.1-2.3 0-3.5 0 0-1.2 0.1-2.4 0-3.5z"/><path class="a" d="m141.2 23.4c0.1 2.3-0.1 4.6 0 6.9h-3.5l-0.3 3.5h-3.8v-3.5c-2.3 0-4.6 0.1-6.9 0 0-1.1-0.1-2.3 0-3.5h11v-3.4c1.2-0.1 2.3 0 3.5 0z"/><path class="a" d="m112.1 62.9c0 2.3 0 4.7 0 7-2.3-0.1-4.6 0-6.9 0-0.1-1.2 0-2.4 0-3.5 1.1-0.1 2.3 0 3.5 0v-3.5c0 0 3.4 0 3.4 0z"/><path class="a" d="m108.7 30.3c0-1.1-0.1-2.3 0-3.5h3.5v3.5c-1.2 0.1-2.4 0-3.5 0-0.1 2.5 0 5.1 0 7.6h3.5v7h3.5v-3.5c1.3-0.1 2.7 0 4 0 0.1 1.1 0 2.3 0 3.5 1.2 0 2.4-0.1 3.5 0 0 1.1 0 2.3 0 3.5h-11v3.4h14.5q0 2.1 0 4.1c-1.2 0-2.3 0-3.5 0 0 1.2 0 2.3 0 3.5-1.2 0-2.3 0-3.5 0v3.2c0.1 0.6 2.7 0.3 3.5 0.3 0 0.8 0.3 3.4-0.3 3.5h-7.3v-3.5h-3.4c0-1.2-0.1-2.4 0-3.5h3.4v-3.5h-6.9v-4.1c-1.2 0-2.4 0.1-3.5 0 0-1.1-0.1-2.3 0-3.5h3.5v-6.6c-0.1-0.6-2.8-0.3-3.5-0.3v3.5h-3.5v-3.5h3.5v-3.5h-3.5v-7.6c2.3 0 4.6 0.1 7 0z"/><path class="a" d="m119.7 30.3c0-0.8-0.3-3.4 0.3-3.5h3.2c0 1.2-0.1 2.4 0 3.5-1.2 0-2.3 0-3.5 0z"/><path class="a" d="m119.7 30.3c0 1.2 0 2.4 0 3.5-1.3 0-2.7 0-4.1 0v-3.1c0.1-0.7 3.3-0.4 4.1-0.4z"/><path class="a" d="m126.7 30.3c-0.1 1.2 0 2.4 0 3.5 1.1 0.1 2.3 0 3.5 0v4.1h-3.5c0-1.4 0-2.7 0-4.1-1.2 0-2.3 0-3.5 0 0-1.1 0-2.3 0-3.5q1.7 0 3.5 0z"/><path class="a" d="m141.2 30.3h3.5c0 1.2 0 2.4 0 3.5-1.2 0-2.3 0-3.5 0 0-1.1 0.1-2.3 0-3.5z"/><path class="a" d="m123.2 33.8c0 2.5 0 5.1 0 7.6-1.1-0.1-2.3-0.1-3.5 0-0.1-2.5 0-5.1 0-7.6 1.2 0 2.3 0 3.5 0z"/><path class="a" d="m144.7 33.8c1.2 0 2.3 0 3.5 0 0 3.7 0 7.4 0 11.1-1.2-0.1-2.3 0-3.5 0-0.1-3.7 0.1-7.4 0-11.1z"/><path class="a" d="m94.1 55.9c1.2 0 2.4 0 3.5 0v3.5c-1.1 0-2.3-0.1-3.5 0q0-1.8 0-3.5z"/><path class="b" d="m101.7 113.4c1.1 0.1 2.3 0 3.5 0v6.7l-3.5 0.3v7.6h7v3.4h6.6c0.6-0.1 0.3-2.7 0.3-3.5-1.1 0-2.3 0.1-3.5 0 0-1.3 0.1-2.7 0-4-1.1 0-2.3 0-3.4 0v-3.5h3.4c0.1 1.1 0 2.3 0 3.5 1.2 0 2.4 0 3.5 0 0 1.3 0.1 2.7 0 4 2.5 0.1 5.1 0 7.6 0 0 2.4 0 4.7 0 7h-3.5v3.5h-22.1v-3.5h7.6v-3.1l-7.6-0.4v-14.5h4.1c0-1.1 0-2.3 0-3.5z"/><path class="b" d="m108.7 109.9c1.1 0.1 2.3 0 3.5 0 0 1.2-0.1 2.4 0 3.5h-3.5c0-1.1 0-2.3 0-3.5z"/><path class="b" d="m184.2 95.4c0.8 0 3.4-0.3 3.5 0.3v3.2c-1.1 0-2.3 0-3.5 0 0.1-1.1 0-2.3 0-3.5z"/><path class="b" d="m155.7 95.4c0 1.2 0.1 2.4 0 3.5-1.3 0-2.7 0-4 0 0-1.2-0.1-2.3 0-3.5 1.3 0 2.7 0 4 0z"/><path class="b" d="m130.2 87.9c0 1.3-0.1 2.7 0 4 2.5 0 5 0.1 7.5 0q0-2 0-4h3.5v4c-1.1 0.1-2.3 0-3.5 0q0 1.8 0 3.5c3.5 0 7 0 10.5 0 0 1.2 0 2.3 0 3.5 1.2 0 2.3 0 3.5 0 0 1.2 0 2.3 0 3.5q-1.8 0-3.5 0c0 1.2 0 2.3 0 3.5-1.1 0-2.3 0-3.5 0 0-2.3 0-4.7 0-7h-11v3.5h-7c-0.1 2.5 0.1 5.1 0 7.6-2.3 0.1-4.7-0.1-7 0-0.1-1.4 0.1-2.8 0-4.1h-4.1v-10.5c-1.1 0-2.3 0.1-3.5 0q0-1.7 0-3.4c4.9 0.1 9.7-0.2 14.6 0 0-1.4-0.1-2.8 0-4.1 1.1 0 2.3 0 3.5 0zm-7 7.5h-3.5v3.5h3.5zm7 0h-3.5v3.5h3.5z"/><path class="b" d="m112.1 87.9c0 1.3 0.1 2.7 0 4-1.1 0-2.3 0.1-3.4 0-0.1-1.3 0-2.7 0-4 1.1 0 2.3 0 3.4 0z"/><path class="b" d="m126.7 84.4c0 1.1 0 2.3 0 3.5-4.8 0-9.7 0-14.5 0 0-1.2-0.1-2.4 0-3.5 4.8 0.1 9.7-0.2 14.5 0z"/><path class="b" d="m105.2 84.4c1.1 0 2.3 0 3.5 0 0 1.1-0.1 2.3 0 3.5-1.2-0.1-2.4 0-3.5 0z"/><path class="b" d="m83.7 91.9c-1.4 0.1-2.7 0-4.1 0v7h-7v11.1h-3.5v-14.6h3.5v-3.5l-3.5-0.3v-3.7h3.5v-3.5h3.5v3.5h7.6c0 1.3-0.1 2.7 0 4 3.5-0.1 7 0.1 10.4 0v3.5h-3.5v3.5h7v-3.5c4.8 0.2 9.7-0.1 14.6 0-0.1 3.5 0 7 0 10.5h-3.5q0 2 0 4c-2.4 0-4.7 0.1-7 0 0 1.2 0 2.4 0 3.5-1.4 0-2.7 0.1-4.1 0v-3.5h-7q0-2 0-4c2.4-0.1 4.7 0 7 0v-3.5h-7c0 1.1 0.1 2.3 0 3.5-3.6 0-7.3-0.1-11 0v4h-3.5v-7.5h7.6v-3.5h3.5v-3.5h-3.5c-0.1-1.1 0-2.3 0-3.5zm25 7h-7v3.5h7z"/><path class="b" d="m83.7 77.4c1.1 0 2.3 0 3.5 0 0 2.3-0.1 4.7 0 7-2.5 0-5.1 0-7.6 0v-3.5h4.1c0-1.2 0-2.3 0-3.5z"/><path class="b" d="m137.7 69.9c0 1.3 0 2.7 0 4-2.5 0.1-5-0.1-7.5 0-0.1-1.3 0-2.7 0-4 2.5-0.1 5-0.1 7.5 0z"/><path class="b" d="m101.7 51.8c0 0.9-0.3 4 0.3 4.1h3.2c0-1.4-0.1-2.7 0-4.1 1.1 0.1 2.3 0 3.5 0v4.1h6.9v3.5h-3.4c-0.1 1.2 0 2.3 0 3.5h-3.5v3.5c-1.2 0-2.4-0.1-3.5 0-0.1-2.3 0-4.7 0-7h-7.6v-3.5c-1.1 0-2.3 0-3.5 0 0-1.4 0.1-2.7 0-4.1 2.5-0.1 5.1 0 7.6 0z"/><path class="b" d="m105.2 66.4c0 1.1 0 2.3 0 3.5 2.3 0 4.6-0.1 7 0 0 1.3-0.1 2.7 0 4 2.5 0 5 0.1 7.5 0q0 1.8 0 3.5h-4v3.5h-10.5v3.5c-2.5-0.1-5.1 0.1-7.6 0v3.5h-10.1c-0.6-0.1-0.3-2.7-0.3-3.5 2.3 0 4.6 0 7 0v-3.5h-3.5v-3.5h11v-11c1.2-0.1 2.3 0 3.5 0q0-0.1 0 0zm3.5 7.5h-3.5v3.5h3.5z"/><path class="b" d="m133.7 51.8c3.6-0.1 7.3 0.1 11 0 0 2.5 0 5.1 0 7.6h-3.5v-3.5h-3.1l-0.4 3.5h-4c-0.1-2.5 0-5.1 0-7.6z"/><path class="b" d="m72.6 66.4c0 1.1 0 2.3 0 3.5h-3.5v-3.2c0.1-0.6 2.8-0.3 3.5-0.3z"/><path class="b" d="m101.7 51.8c-0.1-1.1 0-2.3 0-3.5h-4.1v-21.5h4.1v-3.5h7v-3.4h14.5v3.5h3.1l0.4-3.5h14.5c0 1.1 0 2.3 0 3.4-1.2 0.1-2.3 0-3.5 0v3.5h-11c-0.1 1.2 0 2.4 0 3.5q-1.8 0-3.5 0c-0.1-1.1 0-2.3 0-3.5h-3.2c-0.6 0.1-0.3 2.7-0.3 3.5-0.9 0-4-0.3-4.1 0.4v3.1c1.4 0 2.7 0 4.1 0 0 2.5-0.1 5.1 0 7.6-1.4 0-2.7-0.1-4.1 0v3.5h-3.5v-7h-3.5c0.1-2.5 0-5.1 0-7.6 1.2 0 2.4 0 3.5 0v-3.5h-3.5c0 1.2 0.1 2.4 0 3.5-2.3 0.1-4.6 0-6.9 0v7.6h3.5v3.5h-3.5v3.5h3.5v-3.5c0.7 0 3.4-0.3 3.5 0.3v6.6h-3.5c-0.1 1.2 0 2.4 0 3.5-1.2 0-2.4 0-3.5 0z"/><path class="b" d="m141.2 23.4c1.2-0.1 2.3 0 3.5 0v-3.5h3.5v7h3.5v3.4h4.1v-3.4h3.4v6.9h-3.4v4.1h-4.1c0 2.3 0 4.7 0 7-1.2 0-2.3 0-3.5 0 0-3.7 0-7.4 0-11.1-1.2 0-2.3 0.1-3.5 0 0-1.1 0-2.3 0-3.4h-3.5c-0.1-2.4 0.1-4.7 0-7z"/><path class="b" d="m123.2 59.4c0 1.2 0 2.3 0 3.5-0.8 0-3.4 0.3-3.5-0.3v-3.2c1.2 0 2.3 0 3.5 0z"/><path class="b" d="m90.6 62.9c-2.3 0-4.6 0-6.9 0v-3.5h3.5v-7.6h-11.1v-3.5h17.7c0.6 0.1 0.3 2.7 0.3 3.5-1.1 0.1-2.3 0-3.5 0v3.8c0.1 0.6 2.7 0.3 3.5 0.3q0 1.8 0 3.5c-1.1 0-2.3 0-3.5 0v3.5q0 0 0 0z"/><path class="b" d="m123.2 41.4c0 1.1 0 2.3 0 3.5-1.2-0.1-2.3 0-3.5 0 0-1.2 0-2.4 0-3.5 1.2-0.1 2.3-0.1 3.5 0z"/><path class="b" d="m151.7 48.4c0 1.1-0.1 2.3 0 3.4 1.3 0 2.7 0.1 4 0q0 2.1 0 4.1c-1.3 0.1-2.7 0-4 0v3.2c0.1 0.6 3.2 0.3 4 0.3 0.1 1.2 0 2.3 0 3.5h7v3.5c-2.3 0-4.6 0-7 0v3.5h-3.7l-0.3-3.5c-1.2-0.1-2.3 0-3.5 0v-3.5h-3.5c0-1.2 0-2.4 0-3.5h3.5c0-3.7 0-7.4 0-11.1q1.7 0 3.5 0 0 0 0 0.1z"/><path class="b" d="m126.7 30.3c2.3 0.1 4.6 0 7 0v3.5h3.7l0.3-3.5h3.5c0.1 1.2 0 2.4 0 3.5 1.2 0 2.3 0 3.5 0 0.1 3.7-0.1 7.4 0 11.1 1.2 0 2.3-0.1 3.5 0v3.4c-4.8 0-9.7 0.1-14.5 0 0-2.3-0.1-4.6 0-6.9q2 0 4 0v3.5h3.5v-7h-7.5c-0.1 1.1 0 2.3 0 3.5q-1.8 0-3.5 0v3.5c-1.2 0-2.4-0.1-3.5 0 0-1.2 0-2.4 0-3.5-1.2-0.1-2.3 0-3.5 0 0-2.5 0-5.1 0-7.6 1.2 0 2.3 0 3.5 0 0 1.4 0 2.7 0 4.1h3.5v-4.1c-1.2 0-2.3 0.1-3.5 0 0-1.1 0-2.3 0-3.5z"/><path class="b" d="m155.7 48.4c0.8 0 3.4-0.3 3.5 0.3v3.1c-1.1 0.1-2.3 0-3.5 0q0-1.7 0-3.4z"/><path class="b" d="m155.7 55.9c2.4-0.1 4.7 0 7 0v-7.6h18v3.5h3.5c0.1 2.5-0.1 5.1 0 7.6h3.5v3.5h-3.5c0-1.2 0.1-2.3 0-3.5h-3.5v3.5h-3.5v11h3.5c0.1-2.5 0-5 0-7.5h7v3.5h-3.5v4h-3.5c0 1.2 0.1 2.4 0 3.5h-7.5c-0.1 1.2 0 2.4 0 3.5-1.2 0-2.4 0-3.5 0v3.2c0.1 0.6 2.7 0.3 3.5 0.3 0 1.2-0.1 2.3 0 3.5h4v-3.5c-1.3 0-2.7 0.1-4 0-0.1-1.1-0.1-2.3 0-3.5 3.6-0.1 7.4 0.1 11 0v-3.5h3.5v7h-3.5c0 3.7 0.1 7.4 0 11-1.1 0-2.3 0.1-3.5 0v-3.5h-3.5v6.7c0.1 0.6 6 0.4 7 0.3 0 1.2 0 2.4 0 3.5h-3.5v3.5c-2.5-0.1-5 0.1-7.5 0-0.1-1.2 0-2.3 0-3.5h-3.5v3.5c1.1 0 2.3 0 3.5 0 0.1 3.7-0.1 7.4 0 11h4v-6.9h3.5v3.4h3.5c0-2.5 0-5 0-7.5h3.5v7.5h-3.5q0 1.8 0 3.5h3.5v11.1h-7v-4.1h3.5c0-2.3 0-4.6 0-7h-3.5v3.5h-3.5v11.1h3.5c0.1 1.1 0 2.3 0 3.5 1.2 0 2.4-0.1 3.5 0v3.4h-3.5c0-1.1 0.1-2.3 0-3.4-3.6-0.2-7.3 0-11 0 0-1.2 0-2.4 0-3.5 0.8-0.1 3.4 0.3 3.5-0.4v-3.1c-1.2-0.1-2.3 0-3.5 0-0.1-1.4 0-2.7 0-4.1h-7v4.1c2.3 0 4.7-0.1 7 0 0 1.1 0 2.3 0 3.5-1.2 0-2.3-0.1-3.5 0v3.5c-1.2-0.1-2.3 0-3.5 0v-3.5h-3.5v3.5c1.2 0 2.3-0.1 3.5 0v3.4h-14.5v-3.4h-3.5v-3.5h-3.5v3.5c-1.1 0-2.3-0.1-3.5 0 0 1.1 0 2.3 0 3.4h-7.2c-0.6 0-0.3-2.7-0.3-3.4-1.2-0.1-2.4 0-3.5 0v-3.5h3.5c0 1.1-0.1 2.3 0 3.5 2.4 0 5 0 7.5 0 0-1.2 0-2.4 0-3.5h3.5v-3.5c-6 0-12 0-18 0 0-1.4 0-2.7 0-4.1-1.2 0-2.4 0-3.5 0v-3.5h3.5c0 1.2-0.1 2.3 0 3.5 3.5 0.1 7-0.1 10.4 0v-3.5q2.1 0 4.1 0v3.5h3.5v-3.5c-1.2 0-2.3 0-3.5 0v-3.5h3.5v-3.5h-7.6v3.5h-3.5l-0.3 3.5h-3.2v-3.5h-14.5c0-1.1 0-2.3 0-3.5h3.5v-3.5c1.4 0 2.7 0.1 4.1 0 0 0.8-0.3 3.4 0.3 3.5h6.6c0.1-1.1 0-2.3 0-3.5 1.2 0 2.4 0.1 3.5 0v-4h3.2l0.3 4.1h4.1v-7.6h3.5v3.5c1.1 0 2.3-0.1 3.5 0 0 1.1-0.3 7.5 0.3 7.5h6.6v-3.5h-3.5q0-2 0-4c1.2-0.1 2.4 0 3.5 0 0.1-1.2 0-2.3 0-3.5 1.4 0 2.7 0 4.1 0v3.5h3.5v-10.5c-1.2 0-2.3 0.1-3.5 0 0-1.1 0-2.3 0-3.5 2.3 0 4.7-0.1 7 0 0 1.2-0.1 2.4 0 3.5 1.1 0 2.3 0 3.5 0 0 1.2 0 2.4 0 3.5-1.2 0-2.4 0-3.5 0v3.5h3.5c0-1.2-0.1-2.3 0-3.5 2.3-0.1 4.6 0.1 6.9 0v-3.2c0-0.6-5.8-0.3-6.9-0.3-0.1-1.1 0-2.3 0-3.5-1.2 0-2.4 0.1-3.5 0-0.1-1.3 0-2.7 0-4h-3.5v-3.5h-7.2l-0.4 3.5h4.1c0 1.3-0.1 2.7 0 4-1.4 0.1-2.7 0-4.1 0 0 1.2 0.1 2.3 0 3.5q-1.7 0-3.5 0c0-1.2 0-2.3 0-3.5h-3.5v-3.7l3.5-0.3v-10.5h-6.9v3.5h3.4v3.5h-11v3.5c-1.1 0-2.3-0.1-3.5 0 0-1.2 0.1-2.4 0-3.5-1.1-0.1-2.3 0-3.5 0 0.1-3.5 0-7 0-10.5 1.2 0 2.4 0 3.5 0 0.1 1.2 0 2.3 0 3.5h3.5v3.5h3.7c0.7-0.1 0.4-5.9 0.4-7 0.8 0 3.4 0.3 3.5-0.3v-3.8c-1.2 0-2.4 0.1-3.5 0 0-1.1-0.1-2.3 0-3.5h3.5v-3.4h3.5c0 1.1-0.1 2.3 0 3.4 1.1 0.1 2.3 0 3.4 0v3.5h-3.4v4.1h6.9l0.4 7h3.7v-7h3.5v-4.1h3.5v-3.5q1.7 0 3.5 0c-0.1 2.5 0 5.1 0 7.6h7v-7.6c-2.4 0-4.7 0.1-7 0 0-1.1-0.1-2.3 0-3.4h3.5c0-2.4-0.1-4.7 0-7 1.1-0.1 2.3 0 3.5 0 0 1.1-0.1 2.3 0 3.5h4v-3.5c-1.3 0-2.7 0-4 0-0.1-1.4 0-2.7 0-4.1h-3.2c-0.6 0.1-0.3 3.2-0.3 4.1-1.2 0-2.4 0-3.5 0v3.5c-3.5-0.1-7 0.1-10.5 0 0-1.2 0-2.4 0-3.5zm10.5 21.5h-3.5v3.5h3.5zm3.5 32.5h-10.5v10.5h10.5zm-21.5 10.4c-1.2 0.1-2.4 0-3.5 0v3.5h3.5c0-1.1-0.1-2.3 0-3.5 1.1 0 2.3 0 3.5 0 0 1.2-0.1 2.4 0 3.5 1.3 0.1 2.7 0 4 0 0.1 1.4 0 2.8 0 4.1h3.5v-4.1c-1.1 0-2.3 0.1-3.5 0 0-1.1 0.1-2.3 0-3.5-1.3 0-2.7 0.1-4 0-0.1-1.1 0-2.3 0-3.4h-3.2c-0.6 0-0.3 2.7-0.3 3.4zm3.5 7.6h-3.5v3.5h3.5z"/><path class="b" d="m155.7 44.9c0.1-1.2 0-2.4 0-3.5h3.5v3.5c-1.1 0-2.3-0.1-3.5 0 0 1.1 0.1 2.3 0 3.5-1.3-0.1-2.7 0-4 0-0.1-1.2 0-2.4 0-3.5 1.3 0 2.7 0 4 0z"/><path class="b" d="m112.1 62.9h3.5v3.5h7.3c0.6-0.1 0.3-2.7 0.3-3.5 1.2 0 2.3 0 3.5 0v3.5h3.5c0 1.1-0.1 2.3 0 3.5-2.3 0-4.7-0.1-7 0v4c-1.2 0-2.3 0-3.5 0q0-2 0-4c-2.5-0.1-5 0-7.6 0 0-2.3 0-4.7 0-7z"/><path class="b" d="m123.2 30.3c0 1.2 0 2.4 0 3.5-1.2 0-2.3 0-3.5 0 0-1.1 0-2.3 0-3.5 1.2 0 2.3 0 3.5 0z"/><path class="b" d="m126.7 55.9q0 1.7 0 3.5c-1.2 0-2.3 0-3.5 0 0-1.2 0-2.3 0-3.5 1.2 0 2.3 0 3.5 0z"/><path class="b" d="m97.6 59.4v3.5c-1.1 0-2.3-0.1-3.5 0q0-1.8 0-3.5c1.2-0.1 2.4 0 3.5 0z"/><path class="b" d="m126.7 44.9c0 1.1 0 2.3 0 3.5 2.3 0 4.6-0.1 7 0q0 1.7 0 3.4c-1.2 0.1-2.4 0-3.5 0v4.1c-1.2 0-2.4 0-3.5 0 0-1.3 0-2.7 0-4.1h-14.5v-3.4h11c0-1.2 0-2.4 0-3.5 1.2 0 2.4 0 3.5 0q0 0 0 0z"/><path class="b" d="m72.6 66.4c0-2.4 0.1-4.7 0-7h-3.5v-3.5h10.5v10.5h7.6v3.4h6.6c0.6 0 0.3-2.6 0.3-3.4 1.2 0 2.4-0.1 3.5 0v7.5h-13.9c0 1.2 0 2.3 0 3.5-1.4-0.1-2.7 0.1-4.1 0v-3.5h-7c0-1.3 0.1-2.7 0-4.1 0.8 0 3.4 0.3 3.5-0.3v-3.1z"/><path class="b" d="m94.1 62.9c0 1.1 0.1 2.3 0 3.5-1.1-0.1-2.3 0-3.5 0v-3.5c1.2 0 2.4 0 3.5 0z"/><path class="b" d="m169.7 134.9c0 0.8 0.3 3.4-0.3 3.5h-3.2v-3.5q1.7 0 3.5 0z"/><path class="b" d="m17.3 152.5c11.9 0.8 26.5-1.6 38.2-0.1 3.5 0.4 6.3 3.1 6.7 6.6-0.9 11.8 1.1 25.1 0 36.7-0.4 3.9-2.7 6.6-6.7 7.2-11.7-0.8-25.1 1.2-36.6 0.1-4-0.4-6.7-2.7-7.3-6.7 1-11.7-1.2-25.3 0-36.7 0.4-3.6 2.2-6 5.7-7.1zm0.5 2.9c-1.9 0.5-3.2 2.2-3.3 4.2 1 11.4-1.3 25 0 36.1 0.4 3.2 2 4.1 4.9 4.4 11.5 1 24.5-0.9 36.1 0 2-0.2 3.5-1.9 3.8-3.8 1.5-11.2-1.2-25.7 0-37.3-0.1-2.1-2.3-3.6-4.4-3.7l-37.1 0.1h0.1z"/><path class="b" d="m187.7 19.9v25h-25v-25zm-3.5 3.5h-18v18h18z"/><path class="b" d="m94.1 113.4v25h-25v-25zm-3.4 3.5h-18.1v18h18.1z"/><path class="b" d="m94.1 19.9v25h-25v-25zm-3.4 3.5h-18.1v18h18.1z"/><path class="b" d="m132.5 194.8c0.8 5.1 0.4 9.8 7.2 7.6 2-1.3 0.6-9.9 0.9-12.3-10.3 5.1-11.3-6.9-10.4-14.2 0.9-7.9 11.3-7.7 12.1-2.3 1.2 7.6-0.9 17.5 0.5 25.4-0.5 4.8-3.6 6.9-8.3 5.1-5-1.9-4.2-11-2-9.3zm2.7-23.1c-1.2 0.3-2.4 1.1-2.7 2.5-0.3 1.8-0.3 9.7 0 11.6 0.6 4.9 7.1 5.2 7.9-0.3 0.2-1.4-0.4-2.3-0.3-3.2 0.3-4.2 2.4-12.3-4.9-10.6q0 0 0 0z"/><path class="b" d="m179.6 191.3c-1.2 0.2-1.6-0.4-1.8-1.4-0.8-4.4 1-12.2-0.1-16.2-0.3-0.8-1.6-2.1-2.5-2.2-0.8-0.3-2.6 1.1-2.6 1.5v17.7h-1.8v-18.9c0-2.2 4.2-2.2 5.9-1.7 0.7 0.2 1.7 1.4 2 1.4 0.4 0 0.9-1.2 1.4-1.4 9.1-3.7 6.3 11.7 6.4 16.9 0 1.5 1.7 5.9-1.7 3.4v-13.3c0-0.3 0.5-0.8 0.4-2.1-0.6-5.6-5.6-3.1-5.6-0.8v17.1z"/><path class="b" d="m124.8 170.6c2.2 1.8 2.4 15.1 1.8 18-1.1 4.6-11.9 4-10.2-3.8 1.1-5.8 7.2-4.2 7.9-5.2 0.1-3.5 1.1-9.8-4.2-7.3-0.7 0.3-3.2 3.1-3.3 0.7 1.1-2.7 5.6-4.3 8-2.4zm-0.4 11.4c-6.7-1.5-9 8-2.1 7.6 4.3-0.2 1.9-4.9 2.1-7.6z"/><path class="b" d="m164.9 170.6c2.2 1.8 2.4 15.1 1.8 18-1.1 4.6-11.9 4-10.2-3.8 1.1-5.8 7.2-4.2 7.9-5.2 0.1-3.5 1.1-9.8-4.2-7.3-0.7 0.3-3.2 3.1-3.3 0.7 1.1-2.7 5.6-4.3 8-2.4zm-0.5 11.4c-6.6-1.5-8.9 8-2 7.6 4.3-0.2 1.9-4.9 2-7.6z"/><path class="b" d="m89.5 190.7h-1.8v-14.8c0-0.2-0.9-3.3-1.1-3.5-1.7-2.3-6.4 0.5-6.4 2.4v15.9c-0.8 0.2-1.4-0.2-1.7-0.9-0.5-1.8-0.2-16.4 0.6-17.8 1-1.8 5.2-2.5 7.1-2.2 1.1 0.2 3.3 2.4 3.3 3.2v17.7z"/><path class="b" d="m106.3 172.1h-2.9v-1.7l2.7-0.6 0.2-7.2 1.8-0.3v7.5c1.2 0.1 4.6-0.7 4.6 1.5l-3.7 0.3-0.8 0.9c0.4 3.3-1.9 16.6 2.5 17.1 1.7 0.2 4.5-5 4.4-2-0.3 6.1-8.8 3.6-8.8 0.5v-16q0 0.1 0 0z"/><path class="b" d="m102.3 175.6h-1.8c1.5-4.2-4.8-5.6-5.7-2.5-1.3 4.6 7 7.3 7.5 12.1 1 9.6-11 7.2-9.3-0.9h1.7l0.6 4.3c3.1 2.3 6 0.6 5.2-3.4-0.5-2.5-7.4-6.4-8-10.6-1-6.6 11.2-6.7 9.8 1z"/><path class="b" d="m73.2 162.3v28.4h-1.7v-26.4c0-1.8-1.2-3.2 1.7-2z"/><path class="b" d="m146.4 172.4c0.6-3.2 8.3-3.8 8.7 0.3-0.5 0.5-6.9-3-6.9 0.9v17.1h-1.8c0.7-5.5-0.9-13 0-18.3z"/><path fill-rule="evenodd" class="b" d="m69.1 77.4h7v3.5h-7z"/><path fill-rule="evenodd" class="b" d="m151.7 19.9h4v3.5h-4z"/><path fill-rule="evenodd" class="b" d="m69.1 48.3h3.5v3.5h-3.5z"/><path class="a" d="m169.7 109.9v10.5h-10.5v-10.5zm-3.5 3.5h-3.4v3.5h3.4z"/><path class="a" d="m148.2 120.4c0-0.8-0.3-3.4 0.3-3.5h3.2c0 1.2 0 2.3 0 3.5 1.3 0.1 2.7 0 4.1 0 0 1.2-0.1 2.3 0 3.5 1.1 0.1 2.3 0 3.4 0v4.1h-3.4c-0.1-1.4 0-2.8 0-4.1-1.4-0.1-2.8 0.1-4.1 0 0-1.2 0-2.3 0-3.5-1.2 0-2.4 0-3.5 0 0 1.2 0 2.3 0 3.5h-3.5v-3.5c1.1 0 2.3 0.1 3.5 0z"/><path fill-rule="evenodd" class="a" d="m162.7 77.4h3.5v3.5h-3.5z"/><path fill-rule="evenodd" class="a" d="m148.2 128h3.5v3.4h-3.5z"/><path fill-rule="evenodd" class="a" d="m101.7 98.9h7v3.5h-7z"/><path fill-rule="evenodd" class="a" d="m119.7 95.4h3.5v3.5h-3.5z"/><path fill-rule="evenodd" class="a" d="m126.7 95.4h3.5v3.5h-3.5z"/><path class="a" d="m184.2 23.4v18h-18v-18zm-3.5 3.4h-11v11.1h11z"/><path class="a" d="m90.6 116.9v18h-18v-18zm-3.5 3.5h-11v11.1h11z"/><path class="a" d="m90.6 23.4v18h-18v-18zm-3.5 3.4h-11v11.1h11z"/><path fill-rule="evenodd" class="a" d="m105.2 73.9h3.5v3.5h-3.5z"/><path fill-rule="evenodd" class="b" d="m162.7 113.4h3.5v3.5h-3.5z"/><path class="b" d="m34.1 163.6c20.1-3.3 22.7 25.3 6.1 28.1-20.5 3.5-23.4-25.4-6.1-28.1zm0 2.9c-7.4 1.2-11.1 11.3-6.8 17.5 1.2 1.8 4.5 4.6 6.7 4.9 19.3 3 19-25.7 0.1-22.5z"/><path class="b" d="m51.6 157.7c6.4-0.6 7.1 9.2 0.9 9.8-6.1 0.6-7.6-9.1-0.9-9.8zm-0.1 2.9c-2.6 0.6-1.4 4.5 1 3.9 2.6-0.6 1.4-4.5-1-3.9z"/><path fill-rule="evenodd" class="b" d="m169.7 26.8h11v11.1h-11z"/><path fill-rule="evenodd" class="b" d="m76.1 120.4h11.1v11.1h-11.1z"/><path fill-rule="evenodd" class="b" d="m76.1 26.8h11.1v11.1h-11.1z"/><path class="a" d="m51.5 160.6c2.4-0.6 3.6 3.3 1 3.9-2.4 0.6-3.6-3.3-1-3.9z"/></svg>