<svg version="1.2" xmlns="http://www.w3.org/2000/svg" viewBox="0 0 420 155" width="420" height="155"><style>.a{fill:#010101}</style><path class="a" d="m55.7 28.6c-0.8 0.5-1.1 2.7-1.4 3.6-1.6 5.6-7 32.9-9.9 35.2-2 1.5-3.2-1.9-3.7-3.3-5.3-13.5-7.7-30.1-10.4-44.4l2.7 0.3 10 41.5c0.8 0.1 0.6-0.6 0.8-1.1 4.6-11.1 5.8-25.3 9.8-36.8 0.2-1.7 3.2-2.8 3.9-1.2l9.2 37.9 1.2 0.7 10.3-41.4c1.4-0.8 2.9-1 2.6 1-0.6 5.5-3.1 13.6-4.5 19.3-1.9 7.4-4.4 19.5-7.3 26.1-0.4 0.9-0.7 1.7-1.9 1.9l-1.7-2-9.6-37.2z"/><path class="a" d="m166.9 32.4l2.1 0.6c0.6 4.1 0.4 8.2 0.6 12.3 0.5 10 1.4 22.9 0.5 32.9-0.6 6.2-3.6 11.5-10.6 10.8l0.5 34.4c1.1 0.1 3.9-0.4 4.3 0.8 0.2 2.4-2.1 1.9-3.7 1.9v8.7l-1.3 0.9c-3.5 0-0.8-8.3-2.4-9.4-3.2-0.3-6.6-0.3-9.8-0.2-2.4 0-11.1 2.2-10.9-1.8l20.4-36.3-1.3-2.4c1.6-2 4.2 0.2 6.1 0.2 2.6-0.1 5.5-4.3 5.5-6.6v-46.8zm-9.5 91.1l-0.3-31.3-17.2 31c0.1 1.8 6.9 0.3 8.2 0.2 3.1-0.1 6.2 0.2 9.3 0.1z"/><path class="a" d="m265.9 115c-15.6 13.5-24-7.8-17.5-21.1 4.6-9.3 16.6-7.6 19.4 2.5 1.8 6.5 1.7 27.3-0.7 33.2-4.6 11.2-21 7.6-19.1-4.6 3.4-0.2 2.6 2.3 3.6 4.6 2.1 5.1 9 4.8 11.9 0.7 1-1.4 2.5-5.6 2.5-7.1zm-9.7-23.7c-8.1 1.1-8.3 15.4-5.4 21 4 7.8 12.7 3.2 14.1-3.8 1.4-6.4 0.4-18.4-8.7-17.2z"/><path class="a" d="m327.9 67.3c-2.5-6.2 2.3-27-1.3-31.2-2-2.3-6.2-1.4-7.4 1.5-1.6 3.8-0.9 18.7-0.9 23.6 0.1 1.2 0.6 2.2 0.6 3.2 0 4.1-2.6 4-3.1-0.1-1-7.1 1.5-19.9-0.4-26-1.4-4.5-8.1-4.8-8.7 0.1-0.7 6.3 0 14 0 20.2 0 2.3 1.1 10-2.4 7.7-0.6-3.3-0.1-6.6-0.2-9.9-0.3-5.9-1.2-12.5-0.6-18.5 0.9-7.7 8.5-7.4 13.5-3.5 4.5-4 11.2-4.2 12.9 2.6 1.5 6.4-0.1 16.6 0.1 23.7 0.1 2.6 2.2 7.3-2.1 6.5z"/><path class="a" d="m52.9 90.2c0.8 0.7 1 2.1-0.2 2.4-1.5 0.5-8.3 0.2-10.5 0.1-2.6 0-5.6-1.5-8.2 0.3-2.5 1.8-1.3 5.6-1.6 8.2 6.9-1.2 17.4-1.4 20.6 6.2 3.4 8.3 1.8 25.6-8.3 28.6-10.1 3-17.8-5.3-15.4-15.2l2.1 0.3c0.3 5.9 0.9 11.8 8.2 12.4 7.9 0.7 11.2-4.9 11.9-11.9 0.8-9.2-0.2-18.2-11.4-18.3-2.2-0.1-8.8 1.7-10.1 0.5-1.9-1.8 1.4-10.7-0.1-13.5 0.3-0.8 1-0.7 1.7-0.8 4.7-0.4 13.8-0.4 18.6 0 0.8 0.1 2.1 0.1 2.7 0.7z"/><path class="a" d="m98.7 48.8c0.5 4-0.7 11.5 2.9 14.2 2 1.5 7.7 2.2 9.1-0.3 1.2-1.9 0.1-4.6 3.3-3.9 2.3 7.4-7.7 8.9-8.5 14.6-0.2 1.7 0.9 4 2.5 4.4 2 0.5 5.8-5.6 6.5-2.8 0.8 2.9-4.9 5.7-7.9 4.7-6.8-2-4.5-9.1 0-12.4-3.8 0.3-7.9-1.6-9.4-5.2-1.5-3.4-1.9-13.4-1.8-17.3 0.2-3.6 0.9-10.4 4.1-12.4 3.9-2.4 10.2-1.6 12.2 3 1 2.3 3.4 12.9-0.1 13.4-4.3-0.9-8.7-0.8-12.9 0zm-0.1-3.2h11.7c-0.8-4.3 1-11.4-5.1-11.6-6.5-0.3-6.9 6.6-6.6 11.6z"/><path class="a" d="m107.1 126.1l-18.8 0.5-2.4-2.4c5.1-9.4 10.8-18.5 16-27.9 0.8-1.5 3.5-7.9 4.5-8.3 2.5-0.8 3.1 0.1 3.3 2.3 1 10.5-0.7 22.5 0 33.1l4.8 0.6-0.5 1.8-3.7 0.3v8.7l-1.3 0.8c-0.4-0.1-1.9-1.1-1.9-1.3zm0-2.7v-29.3c0-0.2 1.4-2.8-0.3-1.4l-17.2 30.5c0.1 1.7 6.9 0.3 8.2 0.2 3.1-0.1 6.2 0.1 9.3 0z"/><path class="a" d="m189.2 126.1l-18.8 0.5-2.4-2.4c5.1-9.4 10.8-18.5 16-27.9 0.8-1.5 3.5-7.9 4.5-8.3 2.4-0.8 3.1 0.1 3.3 2.3 1 10.5-0.7 22.5 0 33.1l4.8 0.6-0.5 1.8-3.8 0.3v8.7l-1.2 0.8c-0.4-0.1-1.9-1.1-1.9-1.3zm0-2.7v-29.3c0-0.2 1.4-2.8-0.3-1.4l-17.2 30.5c0.1 1.7 6.9 0.3 8.2 0.2 3.1-0.1 6.2 0.1 9.3 0z"/><path class="a" d="m298.8 134.8l-1.3 0.7c-3.3-0.2-1.1-7-1.9-9.4l-18.8 0.5-2.4-2.4 19.9-35.7c3.1-1.5 3.8-0.7 4 2.3 0.7 10.6-0.6 22-0.1 32.6l4.8 0.6-0.5 1.8-3.7 0.3v8.7zm-3.2-11.4v-29.4c0-0.1 1.4-2.8-0.3-1.3l-17.2 30.5c0.1 1.7 6.9 0.2 8.2 0.2 3.1-0.1 6.2 0.1 9.3 0z"/><path class="a" d="m263.7 31.9c21.3-3.6 25 42.5-0.9 35.1-17.4-4.9-14.1-32.5 0.9-35.1zm1.1 2.7c-12 1.3-16.3 24.9-2 29.3 14.2 4.3 17.9-10.6 13.6-21.1-1.9-4.5-6.5-8.8-11.6-8.2z"/><path class="a" d="m308.6 135.6c-0.3-0.1-1.1-1-1.2-1.4-0.6-1.8 1.3-11.9 2.1-14.1 3.2-9.5 15.2-13.2 14.2-24.5-0.7-7.2-9.2-7.2-12.2-1-1.6 3.4-0.5 7.1-2.9 9.8-1.9 0-1-6.3-0.7-7.6 1.1-5.7 3.9-9.4 10.2-9.4 9.3 0 10.1 10.8 6.7 17.3-2.6 5.1-7.7 7.9-10.4 12.4-3 4.8-3.2 10.4-4 15.9l15.1-0.5c2.9 0.5 1.6 3.1 0 3.1z"/><path class="a" d="m143.1 48.8c0.6 3.7-0.3 10.5 2.1 13.3 1.8 2.2 8.3 3.4 10 0.6 1.2-1.9 0-4.6 3.2-3.9 2.1 11.1-14.3 11.3-17.2 2.2-1.5-4.8-1.6-17.5-0.6-22.4 1.1-5.6 3.9-7.8 9.7-7.3 4.9 0.3 6.1 3.5 7 7.8 0.4 2.3 1.9 9.3-1.3 9.7-4.2-0.9-8.6-0.8-12.9 0zm0-3.2h11.6c-0.8-4.3 1-11.4-5-11.6-6.5-0.3-6.9 6.6-6.6 11.6z"/><path class="a" d="m343.6 31.9c5.9-1.1 8.5 2.9 9.1 8.2 0.6 5 0.8 16.3 0.5 21.5-0.3 6-5.1 6.9-10.2 6.2-9.2-1.1-9.6-15.1-0.6-18 1.6-0.5 6.7-0.7 7.1-1.9 0.4-0.9 0.2-7 0.1-8.3-1.1-7.9-7.4-4.2-11.1-0.6l-1-0.6c-1.2-3.3 3.6-6 6.1-6.5zm6 20c-5.1-0.2-10.8 1.7-10.6 7.7 0.2 6.4 10.3 6.8 11.1 2.7 0.6-3.3-0.5-7.1-0.5-10.4z"/><path class="a" d="m212.5 66c-0.9 2.9-3-0.5-3.2-2.7-0.6-4.9-0.6-21.4 0.6-25.9 1.6-6.6 15.2-7.8 17-1.8 1.3 4.3 0.2 16.2 0.4 21.4 0 3.1 1.4 6.5 0 9.8-1.7 0.3-2.4-1-2.6-2.4-1-6.7 1.6-23-1.2-28-1.5-2.8-5.7-2.2-8.1-0.8-0.4 0.3-2.9 2.6-2.9 2.8z"/><path class="a" d="m236.8 42.9h8.8c1 0 1 2.7 0 2.7h-8l-0.7 0.9c0.2 7 1.2 14.3-0.1 21.3l-2.1-0.2-0.5-1.1c0.9-13-1.2-27.4 0-40.3 0.9-10.9 16.8-10.9 16.7-0.2l-1.6 0.5c-0.9-0.3-1.2-2.5-1.9-3.4-3.4-5-10.6-1.2-10.6 4.2v15.7z"/><path class="a" d="m124.9 31.4c2.2-0.3 5.7-0.4 7.6 0.7 3.2 1.6 4.4 8.2 1.9 7.7-1.9-0.4-1-6-7.1-5.5-2.9 0.2-4.9 1.7-5.4 4.7-0.5 3.8-0.4 16.1 0 20.1 0.5 4.4 3.1 6.4 7.6 5.4 3.3-0.7 2.8-4.6 4-5.4 4.2-0.7 2.2 4.3 0.6 6.3-4 5.1-13.5 1.8-14.8-4.2 0.5-7.2-1.3-14.4-0.4-21.6 0.5-3.9 1.7-7.5 6.1-8.2z"/><path class="a" d="m365.4 31.4c2.2-0.3 5.6-0.4 7.6 0.7 3.1 1.6 4.3 8.2 1.8 7.7-1.8-0.4-1-5.7-6.7-5.6-2.9 0.1-5.1 1.5-5.7 4.4-0.6 3.7-0.5 16.5-0.1 20.5 0.5 4.4 3.1 6.5 7.6 5.4 3.3-0.7 2.8-4.6 4-5.4 4.2-0.7 2.2 4.3 0.6 6.3-4 5.1-13.5 1.9-14.8-4.2 0.5-7.2-1.3-14.4-0.4-21.6 0.5-3.9 1.7-7.4 6-8.2z"/><path class="a" d="m385.1 32.4l2.1 0.8 1.1 15.3c-1.4 9.6 2.3 27.1-1.5 35.6-2.5 5.4-10.3 7.3-13.4 1.5 1.7-2 4.3 0.2 6.1 0.2 2.7-0.1 5.6-4.2 5.6-6.6z"/><path class="a" d="m217.2 88.5c-0.2 10.5-0.7 21-0.5 31.5 0.1 4.3 1.1 9.3 0.6 13.8-0.3 2.3-1.6 2.2-3.3 0.9l0.1-40.9c-1-0.3-1.1 0.3-1.6 0.8-2.4 1.8-6.2 6.1-8.5 7.4-0.5 0.3-1 0.3-1.6 0.2 0-1-0.2-2 0.5-2.9 0.9-1.2 5.5-4.5 6.9-5.8 1.8-1.6 3.5-3.3 4.8-5.3z"/><path class="a" d="m76.8 88.5c-0.1 10.7-0.6 21.4-0.5 32 0.1 4.2 1.1 9 0.6 13.3-0.2 2.3-1.5 2.2-3.2 0.9v-40.9c-0.9-0.3-1 0.4-1.6 0.8-2.3 1.8-6.1 6.2-8.4 7.4-0.6 0.3-1 0.3-1.6 0.2-0.1-1-0.2-2 0.5-2.9 0.8-1.2 5.5-4.5 6.9-5.8 1.7-1.6 3.5-3.3 4.8-5.3z"/><path class="a" d="m291.2 31.4c1.5-0.2 3-0.2 4.4 0.1 2 0.6 7.5 4.6 2.9 4.6-2.5 0-7.5-4.4-9.6 0.5-0.9 8.3 0.5 17.4-0.2 25.7-0.1 0.9-0.4 4.8-1.8 4.5-1-0.7-1.3-1.2-1.4-2.4-1.1-8.4 0.9-19.3 0.1-28 0.3-2.5 3.2-4.6 5.6-5q0 0 0 0z"/><path class="a" d="m200.8 66.5l-2.6 0.8c-0.2-3.8 0.1-7.6 0-11.4-0.3-6.5-1.5-15.9-0.5-22.2 0.4-3 3.1-2.7 3.1-1.6v34.4z"/><path class="a" d="m397.8 32.1l2.6-0.8c0.2 8.4-0.1 16.8 0 25.2 0.1 2.1 1.7 9.2-0.5 10.6-0.8 0.5-2.1 0-2.1-0.6z"/><path class="a" d="m85.9 32.1l2.7-0.8c0.1 8.4-0.2 16.8-0.1 25.2 0.1 2.1 1.7 9.2-0.5 10.6-0.8 0.5-2.1 0-2.1-0.6z"/><path class="a" d="m168.9 17.1c1.1 1.1 0.4 7.4 0.1 9.2-0.1 0.7-0.4 1.4-1.3 1.3-3-0.7-2.5-14.4 1.2-10.5z"/><path class="a" d="m387.1 17.1c1 1.1 0.4 7.4 0.1 9.2-0.1 0.7-0.4 1.4-1.3 1.3-3-0.7-2.5-14.4 1.2-10.5z"/><path class="a" d="m197.6 18.1c3.7-1.1 4 8.1 2.4 8.4-3.4 0.7-2.2-6.5-2.4-8.4z"/><path class="a" d="m87.5 18.1c1 1.4 1.9 8 0.2 8.4-2.9 0.8-2.8-6.7-1.8-8.2 0 0 1.6-0.2 1.6-0.2z"/><path class="a" d="m397.9 25.9c-1-1.1-1.3-8.3 0.7-7.8 2.9 1.2 2.5 11.1-0.7 7.8z"/></svg>